#N canvas 1375 273 581 655 10;
#X obj 16 605 dac~;
#N canvas 101 605 827 635 playgrain 0;
#X obj 28 32 inlet;
#X obj 28 206 outlet~;
#N canvas 262 634 922 562 graindetails 0;
#X obj 258 341 nbx 5 14 -1e+37 1e+37 0 0 empty empty empty 0 -8 0 10
-262144 -1 -1 91 256;
#X obj 468 359 nbx 5 14 -1e+37 1e+37 0 0 empty empty empty 0 -8 0 10
-262144 -1 -1 0 256;
#X obj 99 342 nbx 5 14 -1e+37 1e+37 0 0 empty empty empty 0 -8 0 10
-262144 -1 -1 83672 256;
#X obj 274 82 route range;
#X obj 363 82 route range;
#X obj 452 82 route range;
#N canvas 298 423 450 300 randomFromRange 0;
#X obj 88 46 inlet;
#X obj 88 160 random;
#X obj 135 97 unpack;
#X obj 134 132 expr $f2 - $f1;
#X obj 88 198 +;
#X obj 88 230 outlet;
#X obj 135 47 inlet;
#X text 200 78 selecting a random number from a range;
#X text 139 25 range;
#X text 79 25 trigger;
#X connect 0 0 1 0;
#X connect 1 0 4 0;
#X connect 2 0 3 0;
#X connect 2 0 4 1;
#X connect 2 1 3 1;
#X connect 3 0 1 1;
#X connect 4 0 5 0;
#X connect 6 0 2 0;
#X restore 258 270 pd randomFromRange;
#X obj 468 311 - 24;
#X obj 45 22 inlet;
#X obj 120 515 outlet;
#X obj 45 193 t b b b b;
#X obj 45 343 + 1;
#X obj 45 375 % 6;
#X obj 45 302 i;
#X obj 600 14 inlet;
#N canvas 735 201 450 300 tiltselectFromRange 0;
#X obj 88 46 inlet;
#X obj 162 97 unpack, f 14;
#X obj 162 132 expr $f2 - $f1;
#X obj 88 230 outlet;
#X obj 135 47 inlet;
#X text 139 25 range;
#X text 79 25 trigger;
#X obj 283 15 loadbang;
#X msg 283 40 24 24;
#X obj 88 106 * 0.5;
#X obj 88 128 + 0.5;
#X obj 88 162 * 0;
#X obj 88 184 + 24;
#X text 133 170 selecting a number from a range using X tilt data;
#X obj 135 68 t b l;
#X obj 290 99 receive DancePitch;
#X connect 0 0 9 0;
#X connect 1 0 2 0;
#X connect 1 0 12 1;
#X connect 1 1 2 1;
#X connect 2 0 11 1;
#X connect 4 0 14 0;
#X connect 7 0 8 0;
#X connect 8 0 1 0;
#X connect 9 0 10 0;
#X connect 10 0 11 0;
#X connect 11 0 12 0;
#X connect 12 0 3 0;
#X connect 14 0 9 0;
#X connect 14 1 1 0;
#X connect 15 0 1 0;
#X restore 468 272 pd tiltselectFromRange;
#X obj 274 17 receive ranges;
#X obj 274 44 route /audiobuffer /durationrange /pitchrange;
#N canvas 476 115 777 545 scaledurations 0;
#X obj 154 139 + 2;
#X obj 154 112 unpack 0 0;
#X obj 211 141 + 2;
#X obj 154 181 *;
#X obj 211 181 *;
#X obj 154 291 pack 0 0, f 10;
#X obj 154 89 inlet;
#X obj 154 463 outlet;
#X obj 418 284 f, f 28;
#X obj 513 233 spigot;
#X obj 418 86 receive playthru;
#X msg 418 311 \$1 \$1;
#X obj 418 234 sel 1;
#X obj 583 18 inlet;
#X obj 583 42 expr $f2 - $f1;
#X obj 583 66 / 44.1;
#X obj 154 392 spigot;
#X obj 242 223 t b f;
#X obj 251 193 == 0;
#X text 423 342 if playthru \, then set duration equal to selection
;
#X obj 583 89 moses 10;
#X obj 328 203 loadbang;
#X msg 362 255 1;
#X msg 291 256 100;
#X obj 328 224 t b b b;
#X msg 330 256 100;
#X text 18 210 exponential scaling of input;
#X msg 583 138 10;
#X obj 583 111 t b;
#X obj 628 172 * 1;
#X obj 21 325 receive DanceDuration;
#X obj 253 461 print ttt;
#X connect 0 0 3 0;
#X connect 0 0 3 1;
#X connect 1 0 0 0;
#X connect 1 1 2 0;
#X connect 2 0 4 0;
#X connect 2 0 4 1;
#X connect 3 0 5 0;
#X connect 4 0 5 1;
#X connect 5 0 16 0;
#X connect 6 0 1 0;
#X connect 8 0 11 0;
#X connect 9 0 8 0;
#X connect 10 0 9 1;
#X connect 10 0 12 0;
#X connect 10 0 18 0;
#X connect 11 0 7 0;
#X connect 12 0 8 0;
#X connect 13 0 14 0;
#X connect 14 0 15 0;
#X connect 15 0 20 0;
#X connect 16 0 7 0;
#X connect 16 0 31 0;
#X connect 17 0 5 0;
#X connect 17 1 16 1;
#X connect 18 0 17 0;
#X connect 20 0 28 0;
#X connect 20 1 29 0;
#X connect 21 0 24 0;
#X connect 22 0 16 1;
#X connect 23 0 5 0;
#X connect 24 0 23 0;
#X connect 24 1 25 0;
#X connect 24 2 22 0;
#X connect 25 0 5 1;
#X connect 27 0 29 0;
#X connect 28 0 27 0;
#X connect 29 0 8 1;
#X connect 29 0 9 0;
#X connect 30 0 7 0;
#X restore 363 132 pd scaledurations;
#N canvas 25 381 450 300 randomFromRange 0;
#X obj 88 46 inlet;
#X obj 88 160 random;
#X obj 135 97 unpack;
#X obj 134 132 expr $f2 - $f1;
#X obj 88 198 +;
#X obj 88 230 outlet;
#X obj 135 47 inlet;
#X text 200 78 selecting a random number from a range;
#X text 139 25 range;
#X text 79 25 trigger;
#X connect 0 0 1 0;
#X connect 1 0 4 0;
#X connect 2 0 3 0;
#X connect 2 0 4 1;
#X connect 2 1 3 1;
#X connect 3 0 1 1;
#X connect 4 0 5 0;
#X connect 6 0 2 0;
#X restore 99 268 pd randomFromRange;
#N canvas 173 96 617 575 ifPlaythru 0;
#X obj 30 9 inlet;
#X obj 30 414 outlet;
#X obj 247 34 receive playthru;
#X obj 30 344 spigot, f 7;
#X obj 30 292 pack;
#X obj 42 245 t b f;
#X obj 42 113 == 0;
#X msg 247 369 \$1 \$1;
#X obj 247 291 pack;
#X obj 247 160 t b f, f 8;
#X obj 247 343 spigot, f 8;
#X text 258 396 if playthru option is enabled;
#X text 258 410 playback will always start at;
#X text 257 424 the first selected sample;
#X obj 71 152 loadbang;
#X msg 159 248 0 88200;
#X msg 71 217 1;
#X obj 71 197 del 1;
#X obj 456 160 * 44.1;
#X obj 396 85 receive DanceRange;
#X obj 456 131 receive BufferLength;
#X obj 456 187 * 0.9;
#X obj 411 230 pack 0 0;
#X msg 411 185 0;
#X connect 0 0 4 0;
#X connect 0 0 8 0;
#X connect 2 0 6 0;
#X connect 2 0 9 0;
#X connect 3 0 1 0;
#X connect 4 0 3 0;
#X connect 5 0 4 0;
#X connect 5 1 3 1;
#X connect 6 0 5 0;
#X connect 7 0 1 0;
#X connect 8 0 10 0;
#X connect 9 0 8 0;
#X connect 9 1 10 1;
#X connect 10 0 7 0;
#X connect 14 0 15 0;
#X connect 14 0 17 0;
#X connect 15 0 8 0;
#X connect 15 0 4 0;
#X connect 16 0 5 0;
#X connect 17 0 16 0;
#X connect 18 0 21 0;
#X connect 19 0 23 0;
#X connect 20 0 18 0;
#X connect 21 0 22 1;
#X connect 22 0 1 0;
#X connect 23 0 22 0;
#X restore 204 175 pd ifPlaythru;
#X obj 180 14 loadbang;
#X text 268 321 duration (ms);
#X text 102 321 start time (sample);
#X text 485 339 pitch shift;
#X msg 180 38 range 0 88200;
#X obj 120 467 pack 0 0 0 0 0;
#X obj 682 366 random 20;
#X obj 662 405 + 80;
#X connect 0 0 26 2;
#X connect 1 0 26 3;
#X connect 2 0 26 1;
#X connect 3 0 18 1;
#X connect 3 0 20 0;
#X connect 4 0 18 0;
#X connect 5 0 15 1;
#X connect 6 0 0 0;
#X connect 7 0 1 0;
#X connect 8 0 10 0;
#X connect 10 0 13 0;
#X connect 10 1 19 0;
#X connect 10 2 6 0;
#X connect 10 3 27 0;
#X connect 11 0 12 0;
#X connect 11 0 13 1;
#X connect 12 0 26 0;
#X connect 13 0 11 0;
#X connect 14 0 15 0;
#X connect 15 0 7 0;
#X connect 16 0 17 0;
#X connect 17 0 3 0;
#X connect 17 1 4 0;
#X connect 17 2 5 0;
#X connect 18 0 6 1;
#X connect 19 0 2 0;
#X connect 20 0 19 1;
#X connect 21 0 25 0;
#X connect 25 0 3 0;
#X connect 26 0 9 0;
#X connect 27 0 28 0;
#X connect 28 0 26 4;
#X restore 28 61 pd graindetails;
#X obj 115 32 inlet, f 6;
#X obj 28 94 route 0 1 2 3 4 5, f 89;
#X obj 28 129 shootgrainNew;
#X obj 116 129 shootgrainNew;
#X obj 205 128 shootgrainNew;
#X obj 293 127 shootgrainNew;
#X obj 382 127 shootgrainNew;
#X obj 470 127 shootgrainNew;
#X obj 387 283 catch~ adc;
#X obj 396 351 *~, f 15;
#X obj 479 325 line~;
#X msg 479 300 \$1 50;
#X obj 476 226 receive dryLvl;
#X connect 0 0 2 0;
#X connect 2 0 4 0;
#X connect 3 0 2 1;
#X connect 4 0 5 0;
#X connect 4 1 6 0;
#X connect 4 2 7 0;
#X connect 4 3 8 0;
#X connect 4 4 9 0;
#X connect 4 5 10 0;
#X connect 5 0 1 0;
#X connect 6 0 1 0;
#X connect 7 0 1 0;
#X connect 8 0 1 0;
#X connect 9 0 1 0;
#X connect 10 0 1 0;
#X connect 11 0 12 0;
#X connect 12 0 1 0;
#X connect 13 0 12 1;
#X connect 14 0 13 0;
#X connect 15 0 14 0;
#X restore 17 284 pd playgrain;
#X obj 365 455 table /durationrange 40;
#X obj 365 433 table /pitchrange 49;
#X obj 149 181 list trim;
#X text 380 586 By Kristian Nymoen \, 2015;
#N canvas 396 40 826 683 window-stuff 0;
#X obj 83 96 + 1;
#X obj 103 278 route 1;
#X obj 103 254 pack, f 7;
#X obj 142 375 pack, f 8;
#X msg 142 303 \$2;
#X obj 142 353 > 383;
#X obj 103 232 < 129;
#X obj 142 400 route 1;
#X obj 181 424 t b;
#X msg 153 477 1;
#X obj 103 442 / 511;
#X obj 103 481 * 2;
#X obj 116 151 < 512;
#X obj 83 178 spigot;
#X obj 84 10 bng 15 250 50 0 empty empty empty 17 7 0 10 -262144 -1
-1;
#X obj 2 133 del 1;
#X obj 169 69 sel 0;
#X msg 169 116 -1;
#X obj 83 59 i -1;
#X obj 169 93 del 1;
#X obj 103 566 expr if ($i2 \, sqrt($f1) \, $f1);
#X obj 264 546 tgl 15 0 empty empty empty 17 7 0 10 -262144 -1 -1 0
1;
#X text 283 546 toggle to enable sqrt of hanning;
#X text 102 9 bang to write window;
#X obj 83 207 t b f f f, f 13;
#X obj 83 124 t f f;
#X obj 142 326 t f f, f 8;
#X obj 102 606 tabwrite window;
#N canvas 0 22 635 415 (subpatch) 0;
#X array window 512 float 1;
#A 0 0 0.000151157 0.00060457 0.00135997 0.00241691 0.00377476 0.00543267
0.00738966 0.00964454 0.012196 0.0150424 0.0181821 0.0216131 0.0253334
0.0293408 0.0336328 0.0382068 0.04306 0.0481896 0.0535924 0.0592651
0.0652044 0.0714067 0.077868 0.0845847 0.0915525 0.0987674 0.106225
0.113921 0.12185 0.130007 0.138389 0.146989 0.155803 0.164825 0.174049
0.183471 0.193084 0.202882 0.212861 0.223012 0.233332 0.243813 0.254448
0.265232 0.276158 0.28722 0.29841 0.309722 0.321149 0.332684 0.344321
0.356051 0.367869 0.379766 0.391736 0.403772 0.415866 0.428011 0.440199
0.452423 0.464677 0.476951 0.48924 0.501535 0.513829 0.526115 0.538385
0.550631 0.562847 0.575025 0.587158 0.599238 0.611258 0.623211 0.635089
0.646886 0.658593 0.670205 0.681714 0.693113 0.704395 0.715554 0.726582
0.737473 0.748221 0.758818 0.76926 0.779538 0.789647 0.799581 0.809334
0.818899 0.828272 0.837447 0.846417 0.855178 0.863724 0.87205 0.880151
0.888023 0.895659 0.903057 0.91021 0.917116 0.923769 0.930166 0.936303
0.942176 0.947782 0.953117 0.958178 0.962961 0.967465 0.971686 0.975622
0.979271 0.982629 0.985696 0.988469 0.990946 0.993127 0.995009 0.996592
0.997875 0.998857 0.999537 0.999915 0.999991 1 1 1 1 1 1 1 1 1 1 1
1 1 1 1 1 1 1 1 1 1 1 1 1 1 1 1 1 1 1 1 1 1 1 1 1 1 1 1 1 1 1 1 1 1
1 1 1 1 1 1 1 1 1 1 1 1 1 1 1 1 1 1 1 1 1 1 1 1 1 1 1 1 1 1 1 1 1 1
1 1 1 1 1 1 1 1 1 1 1 1 1 1 1 1 1 1 1 1 1 1 1 1 1 1 1 1 1 1 1 1 1 1
1 1 1 1 1 1 1 1 1 1 1 1 1 1 1 1 1 1 1 1 1 1 1 1 1 1 1 1 1 1 1 1 1 1
1 1 1 1 1 1 1 1 1 1 1 1 1 1 1 1 1 1 1 1 1 1 1 1 1 1 1 1 1 1 1 1 1 1
1 1 1 1 1 1 1 1 1 1 1 1 1 1 1 1 1 1 1 1 1 1 1 1 1 1 1 1 1 1 1 1 1 1
1 1 1 1 1 1 1 1 1 1 1 1 1 1 1 1 1 1 1 1 1 1 1 1 1 1 1 1 1 1 1 1 1 1
1 1 1 1 1 1 0.999915 0.999537 0.998857 0.997876 0.996593 0.99501 0.993128
0.990948 0.988471 0.985698 0.982631 0.979273 0.975625 0.971689 0.967468
0.962965 0.958181 0.95312 0.947786 0.94218 0.936307 0.93017 0.923774
0.917121 0.910215 0.903062 0.895665 0.888029 0.880157 0.872056 0.86373
0.855184 0.846424 0.837454 0.828279 0.818907 0.80934 0.799588 0.789654
0.779545 0.769267 0.758826 0.748229 0.737482 0.72659 0.715562 0.704403
0.693121 0.681723 0.670214 0.658602 0.646895 0.635098 0.62322 0.611267
0.599247 0.587167 0.575035 0.562857 0.55064 0.538393 0.526124 0.513838
0.501544 0.489249 0.476961 0.464686 0.452432 0.440208 0.42802 0.415875
0.403781 0.391746 0.379775 0.367877 0.35606 0.344329 0.332693 0.321158
0.309731 0.298419 0.287228 0.276166 0.26524 0.254456 0.24382 0.23334
0.22302 0.212868 0.202889 0.193091 0.183478 0.174056 0.164831 0.15581
0.146996 0.138395 0.130013 0.121855 0.113926 0.106231 0.098773 0.091558
0.0845895 0.0778727 0.0714112 0.0652089 0.0592695 0.0535966 0.0481936
0.0430635 0.0382101 0.0336359 0.0293438 0.0253363 0.0216157 0.0181845
0.0150445 0.0121979 0.00964627 0.00739118 0.00543401 0.00377586 0.0024178
0.00136065 0.000604987 0.000151366 0;
#X coords 0 1 511 0 100 50 1 0 0;
#X restore 292 84 graph;
#X obj 369 428 expr 0.5 * (1 + cos((3.14159 + 3.14159*2* $f1)));
#X obj 103 516 expr 0.5 * (1 + cos((3.14159 + 3.14159*2* $f1)));
#X connect 0 0 18 1;
#X connect 0 0 25 0;
#X connect 1 0 10 0;
#X connect 1 1 4 0;
#X connect 2 0 1 0;
#X connect 3 0 7 0;
#X connect 4 0 26 0;
#X connect 5 0 3 0;
#X connect 6 0 2 0;
#X connect 7 0 10 0;
#X connect 7 1 8 0;
#X connect 8 0 9 0;
#X connect 9 0 27 0;
#X connect 10 0 11 0;
#X connect 11 0 30 0;
#X connect 12 0 13 1;
#X connect 12 0 16 0;
#X connect 13 0 24 0;
#X connect 14 0 18 0;
#X connect 15 0 18 0;
#X connect 16 0 19 0;
#X connect 17 0 18 1;
#X connect 18 0 0 0;
#X connect 19 0 17 0;
#X connect 20 0 27 0;
#X connect 21 0 20 1;
#X connect 24 0 15 0;
#X connect 24 1 6 0;
#X connect 24 2 2 1;
#X connect 24 3 27 1;
#X connect 25 0 13 0;
#X connect 25 1 12 0;
#X connect 26 0 5 0;
#X connect 26 1 3 1;
#X connect 30 0 20 0;
#X restore 365 486 pd window-stuff;
#N canvas 1595 436 473 412 reverb-stuff 0;
#X obj 208 103 hsl 128 15 0 1 0 1 empty empty 'roomsize' 20 8 0 10
-262144 -260097 -1 11697 0;
#X obj 148 136 hsl 128 15 0 2 0 1 empty empty damp 20 8 0 10 -262144
-260097 -1 11798 0;
#X floatatom 139 114 5 0 0 0 - - -;
#X floatatom 154 156 5 0 0 0 - - -;
#X obj 258 229 hsl 128 15 0 1 0 1 empty empty wet 20 8 0 10 -262144
-260097 -1 12700 0;
#X obj 163 179 hsl 128 15 0 1 0 1 empty empty dry 20 8 0 10 -262144
-260097 -1 10998 0;
#X floatatom 269 252 5 0 0 0 - - -;
#X floatatom 168 203 5 0 0 0 - - -;
#N canvas 335 277 634 321 vfreeverb~ 0;
#N canvas 261 41 778 367 combfilters-left1 0;
#X obj 46 244 +~;
#X obj 61 219 *~ 0.3;
#X obj 61 194 lop~ 1000;
#X obj 231 244 +~;
#X obj 246 219 *~ 0.3;
#X obj 246 194 lop~ 1000;
#X obj 429 218 *~ 0.3;
#X obj 429 193 lop~ 1000;
#X obj 414 241 +~;
#X obj 610 218 *~ 0.3;
#X obj 610 193 lop~ 1000;
#X obj 595 241 +~;
#X obj 61 141 delread~ \$0-comb1left;
#X obj 246 142 delread~ \$0-comb2left;
#X obj 429 141 delread~ \$0-comb3left;
#X obj 610 141 delread~ \$0-comb4left;
#X obj 46 268 delwrite~ \$0-comb1left 100;
#X obj 231 268 delwrite~ \$0-comb2left 100;
#X obj 414 267 delwrite~ \$0-comb3left 100;
#X obj 595 267 delwrite~ \$0-comb4left 100;
#X obj 61 97 r \$0-comb1left;
#X obj 246 97 r \$0-comb2left;
#X obj 429 95 r \$0-comb3left;
#X obj 610 96 r \$0-comb4left;
#X obj 112 170 r \$0-frequency;
#X obj 297 170 r \$0-frequency;
#X obj 480 167 r \$0-frequency;
#X obj 661 167 r \$0-frequency;
#X obj 46 28 inlet~;
#X obj 338 326 outlet~;
#X floatatom 70 119 5 0 0 0 - - -;
#X floatatom 255 121 5 0 0 0 - - -;
#X floatatom 439 119 5 0 0 0 - - -;
#X floatatom 622 121 5 0 0 0 - - -;
#X obj 279 58 clip 0 0.99;
#X obj 279 29 r \$0-room;
#X connect 0 0 16 0;
#X connect 1 0 0 1;
#X connect 2 0 1 0;
#X connect 3 0 17 0;
#X connect 4 0 3 1;
#X connect 5 0 4 0;
#X connect 6 0 8 1;
#X connect 7 0 6 0;
#X connect 8 0 18 0;
#X connect 9 0 11 1;
#X connect 10 0 9 0;
#X connect 11 0 19 0;
#X connect 12 0 2 0;
#X connect 12 0 29 0;
#X connect 13 0 5 0;
#X connect 13 0 29 0;
#X connect 14 0 7 0;
#X connect 14 0 29 0;
#X connect 15 0 10 0;
#X connect 15 0 29 0;
#X connect 20 0 12 0;
#X connect 20 0 30 0;
#X connect 21 0 13 0;
#X connect 21 0 31 0;
#X connect 22 0 14 0;
#X connect 22 0 32 0;
#X connect 23 0 15 0;
#X connect 23 0 33 0;
#X connect 24 0 2 1;
#X connect 25 0 5 1;
#X connect 26 0 7 1;
#X connect 27 0 10 1;
#X connect 28 0 0 0;
#X connect 28 0 3 0;
#X connect 28 0 8 0;
#X connect 28 0 11 0;
#X connect 34 0 1 1;
#X connect 34 0 4 1;
#X connect 34 0 6 1;
#X connect 34 0 9 1;
#X connect 35 0 34 0;
#X restore 15 100 pd combfilters-left1;
#N canvas 27 56 358 650 diffusor-left 0;
#X obj 51 107 *~ 0.5;
#X obj 36 132 +~;
#X obj 66 132 -~;
#X obj 36 26 inlet~;
#X obj 81 238 *~ 0.5;
#X obj 66 263 +~;
#X obj 96 263 -~;
#X obj 111 368 *~ 0.5;
#X obj 96 393 +~;
#X obj 126 393 -~;
#X obj 141 498 *~ 0.5;
#X obj 126 523 +~;
#X obj 156 523 -~;
#X obj 156 605 outlet~;
#X text 95 28 freeverb's diffusor;
#X obj 156 576 hip~ 5;
#X floatatom 214 70 5 0 0 0 - - -;
#X floatatom 246 203 5 0 0 0 - - -;
#X floatatom 280 334 5 0 0 0 - - -;
#X floatatom 304 464 5 0 0 0 - - -;
#X obj 51 53 r \$0-allpass1left;
#X obj 51 80 delread~ \$0-allpass1left;
#X obj 36 158 delwrite~ \$0-allpass1left 40;
#X obj 81 186 r \$0-allpass2left;
#X obj 81 211 delread~ \$0-allpass2left;
#X obj 66 290 delwrite~ \$0-allpass2left 40;
#X obj 111 317 r \$0-allpass3left;
#X obj 111 341 delread~ \$0-allpass3left;
#X obj 96 420 delwrite~ \$0-allpass3left 40;
#X obj 141 447 r \$0-allpass4left;
#X obj 141 471 delread~ \$0-allpass4left;
#X obj 126 550 delwrite~ \$0-allpass4left 40;
#X connect 0 0 1 1;
#X connect 1 0 22 0;
#X connect 2 0 5 0;
#X connect 2 0 6 1;
#X connect 3 0 1 0;
#X connect 3 0 2 1;
#X connect 4 0 5 1;
#X connect 5 0 25 0;
#X connect 6 0 8 0;
#X connect 6 0 9 1;
#X connect 7 0 8 1;
#X connect 8 0 28 0;
#X connect 9 0 11 0;
#X connect 9 0 12 1;
#X connect 10 0 11 1;
#X connect 11 0 31 0;
#X connect 12 0 15 0;
#X connect 15 0 13 0;
#X connect 20 0 16 0;
#X connect 20 0 21 0;
#X connect 21 0 0 0;
#X connect 21 0 2 0;
#X connect 23 0 17 0;
#X connect 23 0 24 0;
#X connect 24 0 4 0;
#X connect 24 0 6 0;
#X connect 26 0 18 0;
#X connect 26 0 27 0;
#X connect 27 0 7 0;
#X connect 27 0 9 0;
#X connect 29 0 19 0;
#X connect 29 0 30 0;
#X connect 30 0 10 0;
#X connect 30 0 12 0;
#X restore 15 168 pd diffusor-left;
#N canvas 312 366 778 367 combfilters-left2 0;
#X obj 46 244 +~;
#X obj 61 219 *~ 0.3;
#X obj 61 194 lop~ 1000;
#X obj 231 244 +~;
#X obj 246 219 *~ 0.3;
#X obj 246 194 lop~ 1000;
#X obj 429 218 *~ 0.3;
#X obj 429 193 lop~ 1000;
#X obj 414 241 +~;
#X obj 610 218 *~ 0.3;
#X obj 610 193 lop~ 1000;
#X obj 595 241 +~;
#X obj 112 170 r \$0-frequency;
#X obj 297 170 r \$0-frequency;
#X obj 480 167 r \$0-frequency;
#X obj 661 167 r \$0-frequency;
#X obj 46 28 inlet~;
#X obj 338 326 outlet~;
#X obj 61 90 r \$0-comb5left;
#X obj 61 141 delread~ \$0-comb5left;
#X obj 46 268 delwrite~ \$0-comb5left 100;
#X obj 246 90 r \$0-comb6left;
#X obj 246 142 delread~ \$0-comb6left;
#X obj 231 268 delwrite~ \$0-comb6left 100;
#X obj 429 88 r \$0-comb7left;
#X obj 429 141 delread~ \$0-comb7left;
#X obj 414 267 delwrite~ \$0-comb7left 100;
#X obj 610 89 r \$0-comb8left;
#X obj 610 141 delread~ \$0-comb8left;
#X obj 595 267 delwrite~ \$0-comb8left 100;
#X floatatom 70 116 5 0 0 0 - - -;
#X floatatom 261 118 5 0 0 0 - - -;
#X floatatom 440 117 5 0 0 0 - - -;
#X floatatom 620 116 5 0 0 0 - - -;
#X obj 279 58 clip 0 0.99;
#X obj 279 28 r \$0-room;
#X connect 0 0 20 0;
#X connect 1 0 0 1;
#X connect 2 0 1 0;
#X connect 3 0 23 0;
#X connect 4 0 3 1;
#X connect 5 0 4 0;
#X connect 6 0 8 1;
#X connect 7 0 6 0;
#X connect 8 0 26 0;
#X connect 9 0 11 1;
#X connect 10 0 9 0;
#X connect 11 0 29 0;
#X connect 12 0 2 1;
#X connect 13 0 5 1;
#X connect 14 0 7 1;
#X connect 15 0 10 1;
#X connect 16 0 0 0;
#X connect 16 0 3 0;
#X connect 16 0 8 0;
#X connect 16 0 11 0;
#X connect 18 0 19 0;
#X connect 18 0 30 0;
#X connect 19 0 2 0;
#X connect 19 0 17 0;
#X connect 21 0 22 0;
#X connect 21 0 31 0;
#X connect 22 0 5 0;
#X connect 22 0 17 0;
#X connect 24 0 25 0;
#X connect 24 0 32 0;
#X connect 25 0 7 0;
#X connect 25 0 17 0;
#X connect 27 0 28 0;
#X connect 27 0 33 0;
#X connect 28 0 10 0;
#X connect 28 0 17 0;
#X connect 34 0 1 1;
#X connect 34 0 4 1;
#X connect 34 0 6 1;
#X connect 34 0 9 1;
#X connect 35 0 34 0;
#X restore 36 134 pd combfilters-left2;
#N canvas 261 41 778 367 combfilters-right1 0;
#X obj 46 244 +~;
#X obj 61 219 *~ 0.3;
#X obj 61 194 lop~ 1000;
#X obj 231 244 +~;
#X obj 246 219 *~ 0.3;
#X obj 246 194 lop~ 1000;
#X obj 429 218 *~ 0.3;
#X obj 429 193 lop~ 1000;
#X obj 414 241 +~;
#X obj 610 218 *~ 0.3;
#X obj 610 193 lop~ 1000;
#X obj 595 241 +~;
#X obj 112 170 r \$0-frequency;
#X obj 297 170 r \$0-frequency;
#X obj 480 167 r \$0-frequency;
#X obj 661 167 r \$0-frequency;
#X obj 46 28 inlet~;
#X obj 338 326 outlet~;
#X floatatom 70 119 5 0 0 0 - - -;
#X floatatom 255 121 5 0 0 0 - - -;
#X floatatom 439 119 5 0 0 0 - - -;
#X floatatom 622 121 5 0 0 0 - - -;
#X obj 61 141 delread~ \$0-comb1right;
#X obj 246 142 delread~ \$0-comb2right;
#X obj 429 141 delread~ \$0-comb3right;
#X obj 610 141 delread~ \$0-comb4right;
#X obj 61 97 r \$0-comb1right;
#X obj 246 97 r \$0-comb2right;
#X obj 429 95 r \$0-comb3right;
#X obj 610 97 r \$0-comb4right;
#X obj 46 268 delwrite~ \$0-comb1right 100;
#X obj 231 268 delwrite~ \$0-comb2right 100;
#X obj 414 267 delwrite~ \$0-comb3right 100;
#X obj 595 267 delwrite~ \$0-comb4right 100;
#X obj 279 58 clip 0 0.99;
#X obj 279 28 r \$0-room;
#X connect 0 0 30 0;
#X connect 1 0 0 1;
#X connect 2 0 1 0;
#X connect 3 0 31 0;
#X connect 4 0 3 1;
#X connect 5 0 4 0;
#X connect 6 0 8 1;
#X connect 7 0 6 0;
#X connect 8 0 32 0;
#X connect 9 0 11 1;
#X connect 10 0 9 0;
#X connect 11 0 33 0;
#X connect 12 0 2 1;
#X connect 13 0 5 1;
#X connect 14 0 7 1;
#X connect 15 0 10 1;
#X connect 16 0 0 0;
#X connect 16 0 3 0;
#X connect 16 0 8 0;
#X connect 16 0 11 0;
#X connect 22 0 2 0;
#X connect 22 0 17 0;
#X connect 23 0 5 0;
#X connect 23 0 17 0;
#X connect 24 0 7 0;
#X connect 24 0 17 0;
#X connect 25 0 10 0;
#X connect 25 0 17 0;
#X connect 26 0 18 0;
#X connect 26 0 22 0;
#X connect 27 0 19 0;
#X connect 27 0 23 0;
#X connect 28 0 20 0;
#X connect 28 0 24 0;
#X connect 29 0 21 0;
#X connect 29 0 25 0;
#X connect 34 0 1 1;
#X connect 34 0 4 1;
#X connect 34 0 6 1;
#X connect 34 0 9 1;
#X connect 35 0 34 0;
#X restore 208 99 pd combfilters-right1;
#N canvas 312 366 778 367 combfilters-right2 0;
#X obj 46 244 +~;
#X obj 61 219 *~ 0.3;
#X obj 61 194 lop~ 1000;
#X obj 231 244 +~;
#X obj 246 219 *~ 0.3;
#X obj 246 194 lop~ 1000;
#X obj 429 218 *~ 0.3;
#X obj 429 193 lop~ 1000;
#X obj 414 241 +~;
#X obj 610 218 *~ 0.3;
#X obj 610 193 lop~ 1000;
#X obj 595 241 +~;
#X obj 112 170 r \$0-frequency;
#X obj 297 170 r \$0-frequency;
#X obj 480 167 r \$0-frequency;
#X obj 661 167 r \$0-frequency;
#X obj 46 28 inlet~;
#X obj 338 326 outlet~;
#X floatatom 70 116 5 0 0 0 - - -;
#X floatatom 261 118 5 0 0 0 - - -;
#X floatatom 440 117 5 0 0 0 - - -;
#X floatatom 620 116 5 0 0 0 - - -;
#X obj 279 58 clip 0 0.99;
#X obj 61 90 r \$0-comb5right;
#X obj 246 90 r \$0-comb6right;
#X obj 429 88 r \$0-comb7right;
#X obj 610 89 r \$0-comb8right;
#X obj 61 141 delread~ \$0-comb5right;
#X obj 246 142 delread~ \$0-comb6right;
#X obj 429 141 delread~ \$0-comb7right;
#X obj 610 141 delread~ \$0-comb8right;
#X obj 46 268 delwrite~ \$0-comb5right 100;
#X obj 231 268 delwrite~ \$0-comb6right 100;
#X obj 414 267 delwrite~ \$0-comb7right 100;
#X obj 595 267 delwrite~ \$0-comb8right 100;
#X obj 279 28 r \$0-room;
#X connect 0 0 31 0;
#X connect 1 0 0 1;
#X connect 2 0 1 0;
#X connect 3 0 32 0;
#X connect 4 0 3 1;
#X connect 5 0 4 0;
#X connect 6 0 8 1;
#X connect 7 0 6 0;
#X connect 8 0 33 0;
#X connect 9 0 11 1;
#X connect 10 0 9 0;
#X connect 11 0 34 0;
#X connect 12 0 2 1;
#X connect 13 0 5 1;
#X connect 14 0 7 1;
#X connect 15 0 10 1;
#X connect 16 0 0 0;
#X connect 16 0 3 0;
#X connect 16 0 8 0;
#X connect 16 0 11 0;
#X connect 22 0 1 1;
#X connect 22 0 4 1;
#X connect 22 0 6 1;
#X connect 22 0 9 1;
#X connect 23 0 18 0;
#X connect 23 0 27 0;
#X connect 24 0 19 0;
#X connect 24 0 28 0;
#X connect 25 0 20 0;
#X connect 25 0 29 0;
#X connect 26 0 21 0;
#X connect 26 0 30 0;
#X connect 27 0 2 0;
#X connect 27 0 17 0;
#X connect 28 0 5 0;
#X connect 28 0 17 0;
#X connect 29 0 7 0;
#X connect 29 0 17 0;
#X connect 30 0 10 0;
#X connect 30 0 17 0;
#X connect 35 0 22 0;
#X restore 225 133 pd combfilters-right2;
#N canvas 27 56 358 650 diffusor-right 0;
#X obj 51 107 *~ 0.5;
#X obj 36 132 +~;
#X obj 66 132 -~;
#X obj 36 26 inlet~;
#X obj 81 238 *~ 0.5;
#X obj 66 263 +~;
#X obj 96 263 -~;
#X obj 111 368 *~ 0.5;
#X obj 96 393 +~;
#X obj 126 393 -~;
#X obj 141 498 *~ 0.5;
#X obj 126 523 +~;
#X obj 156 523 -~;
#X obj 156 605 outlet~;
#X text 95 28 freeverb's diffusor;
#X obj 156 576 hip~ 5;
#X floatatom 214 70 5 0 0 0 - - -;
#X floatatom 244 203 5 0 0 0 - - -;
#X floatatom 280 334 5 0 0 0 - - -;
#X floatatom 304 464 5 0 0 0 - - -;
#X obj 51 53 r \$0-allpass1right;
#X obj 51 80 delread~ \$0-allpass1right;
#X obj 36 158 delwrite~ \$0-allpass1right 40;
#X obj 81 186 r \$0-allpass2right;
#X obj 81 211 delread~ \$0-allpass2right;
#X obj 66 290 delwrite~ \$0-allpass2right 40;
#X obj 111 317 r \$0-allpass3right;
#X obj 111 341 delread~ \$0-allpass3right;
#X obj 96 420 delwrite~ \$0-allpass3right 40;
#X obj 141 447 r \$0-allpass4right;
#X obj 141 471 delread~ \$0-allpass4right;
#X obj 126 550 delwrite~ \$0-allpass4right 40;
#X connect 0 0 1 1;
#X connect 1 0 22 0;
#X connect 2 0 5 0;
#X connect 2 0 6 1;
#X connect 3 0 1 0;
#X connect 3 0 2 1;
#X connect 4 0 5 1;
#X connect 5 0 25 0;
#X connect 6 0 8 0;
#X connect 6 0 9 1;
#X connect 7 0 8 1;
#X connect 8 0 28 0;
#X connect 9 0 11 0;
#X connect 9 0 12 1;
#X connect 10 0 11 1;
#X connect 11 0 31 0;
#X connect 12 0 15 0;
#X connect 15 0 13 0;
#X connect 20 0 16 0;
#X connect 20 0 21 0;
#X connect 21 0 0 0;
#X connect 21 0 2 0;
#X connect 23 0 17 0;
#X connect 23 0 24 0;
#X connect 24 0 4 0;
#X connect 24 0 6 0;
#X connect 26 0 18 0;
#X connect 26 0 27 0;
#X connect 27 0 7 0;
#X connect 27 0 9 0;
#X connect 29 0 19 0;
#X connect 29 0 30 0;
#X connect 30 0 10 0;
#X connect 30 0 12 0;
#X restore 208 169 pd diffusor-right;
#X obj 208 61 *~ 0.015;
#X obj 15 226 *~ 1;
#X obj 208 228 *~ 1;
#X obj 94 228 *~ 1;
#X obj 169 228 *~ 1;
#X obj 115 202 r \$0-dry;
#X obj 229 203 r \$0-wet;
#X obj 36 201 r \$0-wet;
#X obj 94 14 inlet~;
#X obj 208 14 inlet~;
#X obj 15 268 outlet~;
#X obj 169 269 outlet~;
#X obj 312 14 inlet;
#X obj 374 14 inlet;
#X obj 462 14 inlet;
#X obj 544 16 inlet;
#N canvas 0 22 207 207 room 0;
#X obj 32 35 inlet;
#X obj 32 63 * 0.28;
#X obj 32 94 + 0.7;
#X obj 32 160 outlet;
#X text 80 65 scaleroom;
#X text 76 94 offsetroom;
#X obj 47 126 s \$0-room;
#X connect 0 0 1 0;
#X connect 1 0 2 0;
#X connect 2 0 3 0;
#X connect 2 0 6 0;
#X restore 312 45 pd room;
#N canvas 684 169 244 376 frequency 0;
#X obj 60 222 samplerate~;
#X obj 33 8 inlet;
#X obj 33 194 t f b;
#X obj 33 249 *;
#X obj 53 303 s \$0-frequency;
#X obj 33 327 outlet;
#X obj 33 64 * 0.4;
#X text 76 66 scaledamp;
#X obj 33 38 clip 0 2;
#X obj 33 90 t b f;
#X obj 33 141 -;
#X msg 33 116 1;
#X obj 33 168 abs;
#X obj 33 275 * 0.5;
#X text 153 303 for [lop~];
#X connect 0 0 3 1;
#X connect 1 0 8 0;
#X connect 2 0 3 0;
#X connect 2 1 0 0;
#X connect 3 0 13 0;
#X connect 6 0 9 0;
#X connect 8 0 6 0;
#X connect 9 0 11 0;
#X connect 9 1 10 1;
#X connect 10 0 12 0;
#X connect 11 0 10 0;
#X connect 12 0 2 0;
#X connect 13 0 5 0;
#X connect 13 0 4 0;
#X restore 374 45 pd frequency;
#N canvas 0 22 170 187 scalewet 0;
#X obj 22 42 inlet;
#X obj 22 143 outlet;
#X obj 22 73 * 3;
#X text 49 74 scalewet;
#X obj 40 112 s \$0-wet;
#X connect 0 0 2 0;
#X connect 2 0 1 0;
#X connect 2 0 4 0;
#X restore 544 45 pd scalewet;
#N canvas 0 22 220 198 scaledry 0;
#X obj 32 74 * 2;
#X obj 32 40 inlet;
#X obj 32 141 outlet;
#X text 58 75 scaledry;
#X obj 41 105 s \$0-dry;
#X connect 0 0 2 0;
#X connect 0 0 4 0;
#X connect 1 0 0 0;
#X restore 462 45 pd scaledry;
#X floatatom 312 70 5 0 0 0 - - -;
#X floatatom 374 70 10 0 0 0 - - -;
#X floatatom 462 69 5 0 0 0 - - -;
#X floatatom 544 69 5 0 0 0 - - -;
#N canvas 405 27 635 684 tuning 0;
#X msg 332 81 1139 \, 1211 \, 1300 \, 1379 \, 1445 \, 1514 \, 1580
\, 1640;
#X text 72 57 combfilter tunings left;
#X text 377 56 combfilter tunings right;
#X text 71 360 allpass tunings left;
#X text 383 355 allpass tunings right;
#N canvas 243 170 195 233 sampstoms 0;
#X obj 27 21 inlet;
#X obj 54 86 samplerate~;
#X obj 27 111 /;
#X obj 27 57 t f b;
#X obj 27 136 * 1000;
#X obj 27 162 outlet;
#X connect 0 0 3 0;
#X connect 1 0 2 1;
#X connect 2 0 4 0;
#X connect 3 0 2 0;
#X connect 3 1 1 0;
#X connect 4 0 5 0;
#X restore 30 107 pd sampstoms;
#X msg 30 82 1116 \, 1188 \, 1277 \, 1356 \, 1422 \, 1491 \, 1557 \,
1617;
#X obj 57 188 +;
#X msg 57 159 1;
#X obj 30 135 t f b;
#X obj 87 188 f;
#X obj 30 56 t b b;
#X msg 87 159 0;
#X obj 57 212 pack f \$0;
#X msg 57 238 \$2-comb\$1left;
#X obj 30 282 s;
#X obj 57 265 symbol;
#N canvas 0 22 195 233 sampstoms 0;
#X obj 27 21 inlet;
#X obj 54 86 samplerate~;
#X obj 27 111 /;
#X obj 27 57 t f b;
#X obj 27 136 * 1000;
#X obj 27 162 outlet;
#X connect 0 0 3 0;
#X connect 1 0 2 1;
#X connect 2 0 4 0;
#X connect 3 0 2 0;
#X connect 3 1 1 0;
#X connect 4 0 5 0;
#X restore 332 107 pd sampstoms;
#X obj 359 188 +;
#X msg 359 159 1;
#X obj 332 135 t f b;
#X obj 389 188 f;
#X msg 389 159 0;
#X obj 359 212 pack f \$0;
#X obj 332 282 s;
#X obj 359 265 symbol;
#X obj 332 56 t b b;
#X msg 359 238 \$2-comb\$1right;
#X obj 30 360 t b b;
#N canvas 0 22 195 233 sampstoms 0;
#X obj 27 21 inlet;
#X obj 54 86 samplerate~;
#X obj 27 111 /;
#X obj 27 57 t f b;
#X obj 27 136 * 1000;
#X obj 27 162 outlet;
#X connect 0 0 3 0;
#X connect 1 0 2 1;
#X connect 2 0 4 0;
#X connect 3 0 2 0;
#X connect 3 1 1 0;
#X connect 4 0 5 0;
#X restore 30 411 pd sampstoms;
#X obj 57 492 +;
#X msg 57 463 1;
#X obj 30 439 t f b;
#X obj 87 492 f;
#X msg 87 463 0;
#X obj 57 516 pack f \$0;
#X obj 30 586 s;
#X obj 57 569 symbol;
#X obj 334 356 t b b;
#N canvas 0 22 195 233 sampstoms 0;
#X obj 27 21 inlet;
#X obj 54 86 samplerate~;
#X obj 27 111 /;
#X obj 27 57 t f b;
#X obj 27 136 * 1000;
#X obj 27 162 outlet;
#X connect 0 0 3 0;
#X connect 1 0 2 1;
#X connect 2 0 4 0;
#X connect 3 0 2 0;
#X connect 3 1 1 0;
#X connect 4 0 5 0;
#X restore 334 407 pd sampstoms;
#X obj 361 488 +;
#X msg 361 459 1;
#X obj 334 435 t f b;
#X obj 391 488 f;
#X msg 391 459 0;
#X obj 361 512 pack f \$0;
#X obj 334 582 s;
#X obj 361 565 symbol;
#X obj 30 22 loadbang;
#X obj 332 27 loadbang;
#X obj 30 334 loadbang;
#X obj 334 331 loadbang;
#X obj 268 41 bng 15 250 50 0 empty empty empty 17 7 0 10 -262144 -1
-1;
#X msg 30 386 225 \, 556 \, 441 \, 341;
#X msg 334 380 248 \, 579 \, 464 \, 364;
#X msg 57 542 \$2-allpass\$1left;
#X msg 361 539 \$2-allpass\$1right;
#X text 27 624 Original Freeverb delay line lengths are converted to
milliseconds \, based on samplerate.;
#X connect 0 0 17 0;
#X connect 5 0 9 0;
#X connect 6 0 5 0;
#X connect 7 0 10 0;
#X connect 7 0 13 0;
#X connect 8 0 7 0;
#X connect 9 0 15 0;
#X connect 9 1 8 0;
#X connect 10 0 7 1;
#X connect 11 0 6 0;
#X connect 11 1 12 0;
#X connect 12 0 10 0;
#X connect 13 0 14 0;
#X connect 14 0 16 0;
#X connect 16 0 15 1;
#X connect 17 0 20 0;
#X connect 18 0 21 0;
#X connect 18 0 23 0;
#X connect 19 0 18 0;
#X connect 20 0 24 0;
#X connect 20 1 19 0;
#X connect 21 0 18 1;
#X connect 22 0 21 0;
#X connect 23 0 27 0;
#X connect 25 0 24 1;
#X connect 26 0 0 0;
#X connect 26 1 22 0;
#X connect 27 0 25 0;
#X connect 28 0 53 0;
#X connect 28 1 34 0;
#X connect 29 0 32 0;
#X connect 30 0 33 0;
#X connect 30 0 35 0;
#X connect 31 0 30 0;
#X connect 32 0 36 0;
#X connect 32 1 31 0;
#X connect 33 0 30 1;
#X connect 34 0 33 0;
#X connect 35 0 55 0;
#X connect 37 0 36 1;
#X connect 38 0 54 0;
#X connect 38 1 44 0;
#X connect 39 0 42 0;
#X connect 40 0 43 0;
#X connect 40 0 45 0;
#X connect 41 0 40 0;
#X connect 42 0 46 0;
#X connect 42 1 41 0;
#X connect 43 0 40 1;
#X connect 44 0 43 0;
#X connect 45 0 56 0;
#X connect 47 0 46 1;
#X connect 48 0 11 0;
#X connect 49 0 26 0;
#X connect 50 0 28 0;
#X connect 51 0 38 0;
#X connect 52 0 11 0;
#X connect 52 0 28 0;
#X connect 52 0 26 0;
#X connect 52 0 38 0;
#X connect 53 0 29 0;
#X connect 54 0 39 0;
#X connect 55 0 37 0;
#X connect 56 0 47 0;
#X restore 410 141 pd tuning;
#X connect 0 0 1 0;
#X connect 1 0 7 0;
#X connect 2 0 1 0;
#X connect 3 0 5 0;
#X connect 4 0 5 0;
#X connect 5 0 8 0;
#X connect 6 0 3 0;
#X connect 6 0 0 0;
#X connect 6 0 4 0;
#X connect 6 0 2 0;
#X connect 7 0 16 0;
#X connect 8 0 17 0;
#X connect 9 0 16 0;
#X connect 10 0 17 0;
#X connect 11 0 10 1;
#X connect 11 0 9 1;
#X connect 12 0 8 1;
#X connect 13 0 7 1;
#X connect 14 0 6 0;
#X connect 14 0 9 0;
#X connect 15 0 6 0;
#X connect 15 0 10 0;
#X connect 18 0 22 0;
#X connect 19 0 23 0;
#X connect 20 0 25 0;
#X connect 21 0 24 0;
#X connect 22 0 26 0;
#X connect 23 0 27 0;
#X connect 24 0 29 0;
#X connect 25 0 28 0;
#X restore 83 297 pd vfreeverb~;
#X msg 315 84 1.858;
#X msg 298 131 0.866;
#X obj 188 29 loadbang;
#X msg 262 74 0.921;
#X obj 54 156 inlet~;
#X obj 68 355 outlet~;
#X msg 311 178 1;
#X connect 0 0 2 0;
#X connect 0 0 8 2;
#X connect 1 0 3 0;
#X connect 1 0 8 3;
#X connect 4 0 6 0;
#X connect 4 0 8 5;
#X connect 5 0 7 0;
#X connect 5 0 8 4;
#X connect 8 0 14 0;
#X connect 8 1 14 0;
#X connect 9 0 1 0;
#X connect 10 0 5 0;
#X connect 11 0 9 0;
#X connect 11 0 10 0;
#X connect 11 0 12 0;
#X connect 11 0 15 0;
#X connect 12 0 0 0;
#X connect 13 0 8 0;
#X connect 13 0 8 1;
#X connect 15 0 4 0;
#X restore 221 514 pd reverb-stuff;
#X obj 221 484 *~, f 15;
#X obj 203 367 line~;
#X msg 203 342 \$1 300;
#X text 370 195 todo:;
#N canvas 43 80 1346 591 triggergrain 0;
#X obj 625 350 tgl 15 0 empty empty empty 17 7 0 10 -262144 -1 -1 1
1;
#X obj 625 372 metro 800;
#X obj 676 135 receive fromXY;
#X obj 676 220 * -1;
#X obj 676 245 + 1.1;
#X obj 676 267 * 700;
#N canvas 410 23 450 300 probThru 0;
#X obj 193 38 inlet;
#X obj 73 38 inlet;
#X obj 73 208 spigot, f 16;
#X obj 100 114 random 100;
#X obj 193 147 * 100;
#X obj 166 177 < 100;
#X obj 73 74 t b b;
#X obj 73 247 outlet;
#X text 38 10 Let bang through with some probability;
#X text 236 38 prob: 0-1;
#X text 36 36 bang, f 16;
#X connect 0 0 4 0;
#X connect 1 0 6 0;
#X connect 2 0 7 0;
#X connect 3 0 5 0;
#X connect 4 0 5 1;
#X connect 5 0 2 1;
#X connect 6 0 2 0;
#X connect 6 1 3 0;
#X restore 625 397 pd probThru;
#X obj 387 481 outlet;
#X text 753 184 probability;
#X text 589 189 time interval;
#X obj 387 185 receive grainend;
#X obj 387 276 spigot;
#X obj 625 325 == 0;
#X obj 510 248 receive playthru;
#X obj 625 297 pipe 10;
#X obj 565 137 receive DanceXY;
#X text 379 77 b) playthru 0: user-controlled time interval and probability
;
#X text 378 46 a) playthru 1: play from beginning to end of selection
\, then retrigger;
#X text 378 30 2 trigger modes:;
#X text 654 421 playthru 0 \, grains triggered by metro;
#X text 22 269 playthru 0 \, grains triggered when previous grain ends
;
#X obj 676 186 unpack f f;
#X floatatom 750 330 5 0 0 0 - - -;
#X obj 878 262 expr 60000/$f1;
#X floatatom 864 296 5 0 0 0 - - -;
#X obj 890 115 * 800;
#X msg 895 208 \; BPM \$1;
#X obj 939 305 / 10;
#X obj 940 357 i;
#X obj 1027 337 + 1;
#X obj 1026 402 - 1;
#X obj 1027 367 i;
#X obj 1021 309 i;
#X floatatom 930 403 5 0 0 0 - - -;
#X obj 1072 144 * 10;
#X obj 889 138 + 80;
#X obj 983 191 i;
#X obj 1136 289 receive BPMp10;
#X obj 1150 342 receive BPMm10;
#X obj 1149 365 sel 1;
#X obj 1133 317 sel 1;
#X msg 849 338 \; tempoSec \$1;
#X connect 0 0 1 0;
#X connect 1 0 6 0;
#X connect 2 0 21 0;
#X connect 3 0 4 0;
#X connect 4 0 5 0;
#X connect 5 0 22 0;
#X connect 6 0 7 0;
#X connect 10 0 11 0;
#X connect 11 0 7 0;
#X connect 12 0 0 0;
#X connect 13 0 11 1;
#X connect 13 0 14 0;
#X connect 14 0 12 0;
#X connect 15 0 21 0;
#X connect 21 0 3 0;
#X connect 21 0 25 0;
#X connect 21 1 6 1;
#X connect 23 0 24 0;
#X connect 24 0 1 1;
#X connect 24 0 41 0;
#X connect 25 0 35 0;
#X connect 27 0 28 1;
#X connect 27 0 32 1;
#X connect 27 0 31 1;
#X connect 28 0 31 1;
#X connect 28 0 32 1;
#X connect 28 0 33 0;
#X connect 28 0 34 0;
#X connect 29 0 28 0;
#X connect 30 0 28 0;
#X connect 31 0 30 0;
#X connect 32 0 29 0;
#X connect 34 0 36 0;
#X connect 35 0 36 0;
#X connect 36 0 23 0;
#X connect 36 0 26 0;
#X connect 36 0 27 0;
#X connect 37 0 40 0;
#X connect 38 0 39 0;
#X connect 39 0 31 0;
#X connect 40 0 32 0;
#X restore 17 184 pd triggergrain;
#N canvas 1216 150 1280 751 sendtoGUI 0;
#X msg 410 177 list /audiobuffer refresh;
#X obj 411 138 receive RefreshBufferGUI;
#X obj 595 127 * 0.001;
#X obj 418 575 send toGUI;
#X obj 595 153 - 1;
#X msg 595 177 list /BufferSize set \$1;
#X obj 595 104 receive BufferLength;
#X obj 758 123 receive playthru;
#X msg 758 181 list /playthru set \$1;
#X msg 981 251 list /GrainOrPlay Play mode;
#X msg 922 180 list /GrainOrPlay Grain mode;
#X obj 917 151 sel 0 1;
#X obj 347 108 receive RecordOff;
#X msg 823 440 list /DancersP image dancers2.png;
#X obj 846 320 receive DanceMode;
#X obj 846 352 sel 1 0;
#X msg 846 401 list /DancersP image dancers.png;
#X msg 922 575 \; DanceMode 0;
#X obj 922 552 t b;
#X obj 922 525 receive fromXY;
#X obj 1015 525 receive ranges;
#X msg 881 378 list /DancersB set 0;
#X obj 51 21 loadbang;
#X msg 51 47 list /LoadSample Piano SynthMelody Drums Humanistiske
Bass;
#X msg 450 254 list /durationrange refresh;
#X msg 454 301 list /pitchrange refresh;
#X obj 467 209 loadbang;
#X obj 652 563 sel 1 0;
#X obj 683 504 receive delayToggle;
#X msg 687 589 list /delayToggle set 0;
#X msg 652 612 list /delayPanel image delaybtn0.png;
#X msg 629 651 list /delayPanel image delaybtn1.png;
#X obj 231 490 receive userVolume;
#X msg 231 542 list /userVolume set \$1;
#X obj 231 516 * 0.25;
#X obj 144 87 receive recToggled;
#X msg 182 151 list /RecordButton set 1;
#X msg 43 324 list /togrecpanel highlight 1;
#X msg 256 227 list /RecordButton set 0 \, list /togrecpanel highlight
0;
#X obj 107 581 receive SpeedProb;
#X msg 154 673 list /XYslider set \$1 \$2;
#X obj 1028 554 receive padMode;
#X msg 380 694 list /multiSlider 0.502 0.882 0.831 0.766 0.513 0.531
;
#X msg 900 687 list /XYslider 0.91 0.95;
#X msg 260 276 list /RecordButton2 set 0 \, list /togrecpanel2 highlight
0;
#X msg 202 175 list /RecordButton2 set 1;
#X obj 857 486 receive BPM;
#X msg 816 517 list /BPMtext \$1;
#X connect 0 0 3 0;
#X connect 1 0 0 0;
#X connect 2 0 4 0;
#X connect 4 0 5 0;
#X connect 5 0 3 0;
#X connect 6 0 2 0;
#X connect 7 0 8 0;
#X connect 7 0 11 0;
#X connect 8 0 3 0;
#X connect 9 0 3 0;
#X connect 10 0 3 0;
#X connect 11 0 10 0;
#X connect 11 1 9 0;
#X connect 12 0 38 0;
#X connect 12 0 0 0;
#X connect 12 0 44 0;
#X connect 13 0 3 0;
#X connect 14 0 15 0;
#X connect 15 0 13 0;
#X connect 15 1 16 0;
#X connect 15 1 21 0;
#X connect 16 0 3 0;
#X connect 18 0 17 0;
#X connect 19 0 18 0;
#X connect 20 0 18 0;
#X connect 21 0 3 0;
#X connect 22 0 23 0;
#X connect 23 0 3 0;
#X connect 24 0 3 0;
#X connect 25 0 3 0;
#X connect 26 0 24 0;
#X connect 26 0 25 0;
#X connect 27 0 31 0;
#X connect 27 1 30 0;
#X connect 27 1 29 0;
#X connect 28 0 27 0;
#X connect 29 0 3 0;
#X connect 30 0 3 0;
#X connect 31 0 3 0;
#X connect 32 0 34 0;
#X connect 33 0 3 0;
#X connect 34 0 33 0;
#X connect 35 0 36 0;
#X connect 35 0 37 0;
#X connect 35 0 45 0;
#X connect 36 0 3 0;
#X connect 37 0 3 0;
#X connect 38 0 3 0;
#X connect 39 0 40 0;
#X connect 40 0 3 0;
#X connect 41 0 18 0;
#X connect 41 0 42 0;
#X connect 41 0 43 0;
#X connect 42 0 3 0;
#X connect 43 0 3 0;
#X connect 44 0 3 0;
#X connect 45 0 3 0;
#X connect 46 0 47 0;
#X connect 47 0 3 0;
#X restore 365 507 pd sendtoGUI;
#X obj 365 411 table /audiobuffer 88200;
#X obj 22 438 *~, f 9;
#N canvas 1558 972 652 395 DanceMode 0;
#X obj 47 27 receive DanceMode;
#X msg 47 206 \; playthru 0;
#X msg 272 207 \; DancePitch 14 34;
#X obj 47 117 sel 1;
#X msg 391 208 \; DanceXY 0.86 0.95;
#X msg 128 207 \; DanceDuration 2 15;
#X msg 515 208 \; DanceRange bang;
#X connect 0 0 3 0;
#X connect 3 0 1 0;
#X connect 3 0 5 0;
#X connect 3 0 2 0;
#X connect 3 0 4 0;
#X connect 3 0 6 0;
#X restore 365 528 pd DanceMode;
#N canvas 213 718 1820 543 receivefromGUI 0;
#X obj 97 41 receive fromGUI;
#X obj 97 65 list trim;
#X obj 583 247 send fromXY;
#X obj 1609 177 send ranges;
#X msg 604 218 0 0;
#X obj 603 198 loadbang;
#X obj 437 274 send DanceMode;
#X obj 179 153 outlet;
#X obj 352 231 outlet;
#X obj 522 236 outlet;
#X obj 700 218 send delayToggle, f 17;
#N canvas 669 713 916 401 playthru 0;
#X obj 69 32 inlet;
#X obj 152 137 receive playthru;
#X obj 145 202 f;
#X obj 265 67 t b b b, f 15;
#X msg 409 113 0;
#X obj 232 169 spigot;
#X msg 265 104 1;
#X msg 308 102 \; playthru 0;
#X obj 69 116 sel 0 1;
#X obj 265 38 loadbang;
#X msg 145 227 \; playthru \$1;
#X msg 554 116 \; grainend bang;
#X obj 554 74 sel 1;
#X obj 554 95 del 10;
#X obj 554 34 inlet;
#X obj 615 72 send playthru;
#X obj 43 10 receive RecordButton2;
#X connect 0 0 8 0;
#X connect 1 0 5 0;
#X connect 2 0 10 0;
#X connect 3 0 6 0;
#X connect 3 1 7 0;
#X connect 3 2 4 0;
#X connect 4 0 5 1;
#X connect 5 0 2 1;
#X connect 6 0 5 1;
#X connect 8 0 2 0;
#X connect 8 1 3 0;
#X connect 9 0 3 0;
#X connect 12 0 13 0;
#X connect 13 0 11 0;
#X connect 14 0 12 0;
#X connect 14 0 15 0;
#X connect 16 0 8 0;
#X restore 162 228 pd playthru;
#X obj 182 389 * 0.9;
#X obj 182 320 == 0;
#X obj 182 449 line~;
#X msg 182 426 \$1 2;
#X obj 230 327 loadbang;
#X msg 230 349 1;
#X obj 222 305 receive volume;
#X obj 182 478 throw~ volume, f 14;
#X obj 21 200 sel 1;
#X msg 20 234 \; RefreshBufferGUI bang, f 18;
#X obj 854 282 loadbang;
#X msg 854 304 0.25;
#X msg 834 357 \; userVolume \$1 \;;
#X obj 834 329 * 4;
#N canvas 575 343 450 300 NormButton 0;
#X obj 89 66 inlet;
#X obj 89 88 sel 0 1;
#X msg 108 122 \; /audiobuffer normalize \; RefreshBufferGUI bang \;
toGUI list /NormPanel image normalizebtn1.png;
#X msg 89 186 \; toGUI list /NormPanel image normalizebtn0.png;
#X connect 0 0 1 0;
#X connect 1 0 3 0;
#X connect 1 1 2 0;
#X restore 881 207 pd NormButton;
#N canvas 0 22 1078 530 PanicButton 0;
#X obj 154 72 inlet;
#X msg 154 301 \; ranges /audiobuffer range 0 \$1;
#X obj 154 276 f, f 6;
#X obj 169 249 * 44.1;
#X obj 169 227 receive BufferLength;
#X text 249 29 When clear button is pressed \, set grain mode with
no triggering and reduce volume to 0 \, also select entire audio buffer
;
#X obj 154 125 sel 1 0, f 51;
#X msg 431 226 \; volume 1 \; feedbackToggle 1 \; toGUI list /PanicPanel
image panicbtn0.png \;;
#X msg 41 345 \; playthru 0 \; fromXY 0 0 \; volume 0 \; feedbackToggle
0 \; toGUI list /PanicPanel image panicbtn1.png \;, f 39;
#X connect 0 0 6 0;
#X connect 2 0 1 0;
#X connect 3 0 2 0;
#X connect 4 0 3 0;
#X connect 6 0 8 0;
#X connect 6 0 2 0;
#X connect 6 1 7 0;
#X restore 695 309 pd PanicButton;
#X obj 1047 290 sel 1;
#X msg 1083 222 \; padMode \$1;
#X obj 1188 252 unpack f f f f f f;
#X msg 1270 324 \; reverbLvl \$1;
#X msg 1289 285 \; dryLvl \$1;
#X msg 1047 318 \; clearAudio bang \; RefreshBufferGUI bang;
#X msg 1186 381 \; delayTime \$1;
#X msg 1203 424 \; delayLvl \$1;
#X msg 1229 464 \; feedback \$1;
#X msg 1252 502 \; delayTimeSpread \$1;
#X obj 1171 194 send pitchDelayFeedbacks;
#X obj 1177 169 send pitchDelayFeedback;
#X obj 1186 137 send keysXYSlider;
#X obj 570 341 ctlin;
#X obj 570 362 pack i i;
#X msg 570 383 \$2 \$1;
#X obj 570 404 route 1 7;
#X obj 469 393 notein;
#X obj 469 414 s notein;
#X obj 577 450 / 127;
#X msg 828 146 \; toggleRec \$1 \;;
#X msg 1445 175 \; toggleRec2 \$1 \;;
#X msg 1371 214 \; RecordButton2 \$1 \;;
#X msg 1333 113 \; BPMm10 \$1 \;;
#X msg 1405 125 \; BPMp10 \$1 \;;
#X obj 117 54 route /ResetButton /RecordButton /playthru /LoadSample
/DancersB /BufferSize /XYslider /PanicButton /delayToggle /userVolume
/NormButton /toggleRec /clearAudio /padMode /multiSlider /pitchDelayFeedbacks
/pitchDelayFeedback /keysXYSlider /RecordButton2 /toggleRec2 /BPMm10
/BPMp10 /delaytidGrid, f 214;
#X obj 1423 102 send delaytidGrid;
#X connect 0 0 1 0;
#X connect 1 0 53 0;
#X connect 4 0 2 0;
#X connect 5 0 4 0;
#X connect 12 0 15 0;
#X connect 13 0 12 0;
#X connect 14 0 19 0;
#X connect 15 0 14 0;
#X connect 16 0 17 0;
#X connect 17 0 12 0;
#X connect 18 0 12 0;
#X connect 20 0 21 0;
#X connect 22 0 23 0;
#X connect 23 0 25 0;
#X connect 25 0 24 0;
#X connect 28 0 33 0;
#X connect 30 0 34 0;
#X connect 30 1 35 0;
#X connect 30 2 36 0;
#X connect 30 3 37 0;
#X connect 30 4 31 0;
#X connect 30 5 32 0;
#X connect 41 0 42 0;
#X connect 41 1 42 1;
#X connect 42 0 43 0;
#X connect 43 0 44 0;
#X connect 44 0 47 0;
#X connect 45 0 46 0;
#X connect 47 0 39 0;
#X connect 53 0 20 0;
#X connect 53 1 7 0;
#X connect 53 1 11 0;
#X connect 53 2 11 1;
#X connect 53 3 8 0;
#X connect 53 4 6 0;
#X connect 53 5 9 0;
#X connect 53 6 2 0;
#X connect 53 7 27 0;
#X connect 53 8 10 0;
#X connect 53 9 25 0;
#X connect 53 10 26 0;
#X connect 53 11 48 0;
#X connect 53 12 28 0;
#X connect 53 13 29 0;
#X connect 53 14 30 0;
#X connect 53 15 38 0;
#X connect 53 16 39 0;
#X connect 53 17 40 0;
#X connect 53 18 50 0;
#X connect 53 19 49 0;
#X connect 53 20 51 0;
#X connect 53 21 52 0;
#X connect 53 22 54 0;
#X connect 53 23 3 0;
#X restore 24 18 pd receivefromGUI;
#X obj 73 411 catch~ volume;
#N canvas 400 153 954 523 SoundSample-and-BufferSize 0;
#X obj 177 76 inlet;
#X obj 177 226 soundfiler;
#X floatatom 177 276 5 0 0 0 - - -;
#X text 218 155 load sound file;
#X obj 177 169 symbol;
#X msg 177 192 read -resize \$1 /audiobuffer;
#X obj 177 316 / 44.1;
#X msg 26 300 \; RefreshBufferGUI bang;
#X msg 41 355 \; BufferLength \$1;
#X msg 177 100 \$1;
#X obj 489 76 inlet;
#X obj 489 160 + 1;
#X msg 493 270 \; /audiobuffer resize \$1;
#X obj 557 128 loadbang;
#X msg 557 154 2;
#X text 583 153 initialize 2 sec audiobuffer;
#X obj 489 186 * 44100;
#X text 68 408 buffer length (milliseconds);
#N canvas 0 22 644 287 select-sample 0;
#X msg 62 91 piano.wav;
#X msg 158 91 melodius.wav;
#X msg 255 91 beat.wav;
#X msg 351 91 humanistiske.wav;
#X obj 62 63 sel 0 1 2 3 4, f 81;
#X msg 461 91 bass.wav;
#X obj 62 192 outlet;
#X obj 62 27 inlet;
#X connect 0 0 6 0;
#X connect 1 0 6 0;
#X connect 2 0 6 0;
#X connect 3 0 6 0;
#X connect 4 0 0 0;
#X connect 4 1 1 0;
#X connect 4 2 2 0;
#X connect 4 3 3 0;
#X connect 4 4 5 0;
#X connect 5 0 6 0;
#X connect 7 0 4 0;
#X restore 177 132 pd select-sample;
#X text 177 21 Subpatch for loading a sound sample and resetting audio
buffer size;
#X obj 755 236 samplerate~;
#X obj 755 209 r pd-dsp-started;
#X floatatom 772 297 7 0 0 0 - - -;
#X obj 756 263 t b i;
#X obj 775 338 / 1000;
#X connect 0 0 9 0;
#X connect 1 0 2 0;
#X connect 2 0 6 0;
#X connect 2 0 7 0;
#X connect 4 0 5 0;
#X connect 5 0 1 0;
#X connect 6 0 8 0;
#X connect 9 0 18 0;
#X connect 10 0 11 0;
#X connect 11 0 16 0;
#X connect 13 0 14 0;
#X connect 14 0 16 0;
#X connect 16 0 2 0;
#X connect 16 0 12 0;
#X connect 18 0 4 0;
#X connect 20 0 23 0;
#X connect 21 0 20 0;
#X connect 22 0 16 1;
#X connect 22 0 24 0;
#X connect 23 0 16 0;
#X connect 23 1 22 0;
#X connect 24 0 6 1;
#X restore 125 111 pd SoundSample-and-BufferSize;
#N canvas 255 552 1943 643 recordAudio 0;
#X obj 122 103 inlet;
#X msg 122 354 bang;
#X msg 594 371 stop;
#X obj 299 331 adc~, f 7;
#X msg 216 233 \; /audiobuffer const 0;
#X obj 441 339 t b b, f 26;
#X obj 441 369 send RefreshBufferGUI;
#X obj 122 159 sel 1 0, f 107;
#X text 126 177 press record button;
#X text 453 178 release record button;
#X text 461 321 stop recording and refresh GUI;
#X text 229 208 clear buffer;
#X text 20 354 start recording;
#X obj 122 199 t b b, f 13;
#N canvas 1067 654 516 404 End-Record-at-Bufferlength 0;
#X obj 56 276 delay 3100;
#X msg 95 123 stop;
#X msg 56 321 \; RecordOff bang;
#X obj 113 242 + 100;
#X obj 113 215 receive BufferLength;
#X obj 56 51 inlet;
#X obj 56 87 t b b, f 7;
#X text 31 28 On record start \, initialize delay to end when buffer
is full;
#X text 136 126 Stop the current delay if new record on message is
received;
#X connect 0 0 2 0;
#X connect 1 0 0 0;
#X connect 3 0 0 1;
#X connect 4 0 3 0;
#X connect 5 0 6 0;
#X connect 6 0 0 0;
#X connect 6 1 1 0;
#X restore 162 272 pd End-Record-at-Bufferlength;
#X obj 465 299 receive RecordOff;
#X obj 343 18 receive toggleRec;
#X obj 343 39 sel 1;
#X msg 382 85 stop;
#X obj 343 61 t b b, f 7;
#X msg 343 132 1;
#X obj 343 111 delay 1000;
#X msg 431 111 \; recToggled bang;
#X obj 290 184 receive clearAudio;
#X obj 228 384 throw~ adc;
#X obj 98 457 tabplay~ /audiobuffer;
#X obj 291 516 tabwrite~ /audiobuffer;
#X obj 1150 31 receive toggleRec2;
#X obj 929 99 receive RecordButton2;
#X msg 929 369 bang;
#X msg 1401 386 stop;
#X obj 1103 385 adc~, f 7;
#X obj 1248 354 t b b, f 26;
#X obj 1248 384 send RefreshBufferGUI;
#X obj 929 174 sel 1 0, f 107;
#X text 933 192 press record button;
#X text 1260 193 release record button;
#X text 1268 336 stop recording and refresh GUI;
#X text 827 369 start recording;
#X obj 929 214 t b b, f 13;
#N canvas 691 654 516 404 End-Record-at-Bufferlength 0;
#X obj 56 276 delay 3100;
#X msg 95 123 stop;
#X msg 56 321 \; RecordOff bang;
#X obj 113 242 + 100;
#X obj 113 215 receive BufferLength;
#X obj 56 51 inlet;
#X obj 56 87 t b b, f 7;
#X text 31 28 On record start \, initialize delay to end when buffer
is full;
#X text 136 126 Stop the current delay if new record on message is
received;
#X connect 0 0 2 0;
#X connect 1 0 0 0;
#X connect 3 0 0 1;
#X connect 4 0 3 0;
#X connect 5 0 6 0;
#X connect 6 0 0 0;
#X connect 6 1 1 0;
#X restore 969 287 pd End-Record-at-Bufferlength;
#X obj 1272 314 receive RecordOff;
#X obj 1150 54 sel 1;
#X msg 1189 100 stop;
#X obj 1150 76 t b b, f 7;
#X msg 1150 147 1;
#X obj 1150 126 delay 1000;
#X msg 1233 131 \; recToggled bang;
#X obj 905 472 tabplay~ /audiobuffer;
#X obj 1098 531 tabwrite~ /audiobuffer;
#X text 1454 93 Recording from ADC channel 2;
#X text 524 73 Recording from ADC channel 1;
#X connect 0 0 7 0;
#X connect 1 0 25 0;
#X connect 1 0 26 0;
#X connect 2 0 26 0;
#X connect 3 0 24 0;
#X connect 3 0 26 0;
#X connect 3 1 24 0;
#X connect 5 0 6 0;
#X connect 5 1 2 0;
#X connect 7 0 13 0;
#X connect 7 1 5 0;
#X connect 13 0 1 0;
#X connect 13 0 14 0;
#X connect 15 0 5 0;
#X connect 16 0 17 0;
#X connect 17 0 19 0;
#X connect 18 0 21 0;
#X connect 19 0 21 0;
#X connect 19 1 18 0;
#X connect 20 0 7 0;
#X connect 21 0 20 0;
#X connect 21 0 22 0;
#X connect 23 0 4 0;
#X connect 25 0 26 0;
#X connect 27 0 42 0;
#X connect 28 0 34 0;
#X connect 29 0 48 0;
#X connect 29 0 49 0;
#X connect 30 0 49 0;
#X connect 31 1 49 0;
#X connect 32 0 33 0;
#X connect 32 1 30 0;
#X connect 34 0 39 0;
#X connect 34 1 32 0;
#X connect 39 0 29 0;
#X connect 39 0 40 0;
#X connect 41 0 32 0;
#X connect 42 0 44 0;
#X connect 43 0 46 0;
#X connect 44 0 46 0;
#X connect 44 1 43 0;
#X connect 45 0 34 0;
#X connect 46 0 45 0;
#X connect 46 0 47 0;
#X connect 48 0 49 0;
#X restore 24 111 pd recordAudio;
#X text 373 275 discrete pitch tilting: chords;
#N canvas 86 83 311 454 limiter 0;
#X obj 76 342 *~, f 5;
#X obj 103 150 env~;
#X obj 103 172 dbtorms;
#X obj 76 45 inlet~;
#X obj 76 412 outlet~;
#X msg 103 226 1 \$1;
#X obj 103 253 /;
#X obj 103 278 min 1;
#X obj 103 199 + 0.5;
#X obj 103 306 lop~ 5;
#X obj 162 342 *~, f 5;
#X obj 162 412 outlet~;
#X obj 149 50 inlet~;
#X obj 165 379 hip~ 5;
#X obj 77 376 hip~ 5;
#X connect 0 0 14 0;
#X connect 1 0 2 0;
#X connect 2 0 8 0;
#X connect 3 0 1 0;
#X connect 3 0 0 0;
#X connect 5 0 6 0;
#X connect 6 0 7 0;
#X connect 7 0 9 0;
#X connect 8 0 5 0;
#X connect 9 0 0 1;
#X connect 9 0 10 1;
#X connect 10 0 13 0;
#X connect 12 0 1 0;
#X connect 12 0 10 0;
#X connect 13 0 11 0;
#X connect 14 0 4 0;
#X restore 16 569 pd limiter;
#N canvas 1201 233 1380 1156 delay-stuff 0;
#X obj 98 37 inlet~;
#X obj 265 34 inlet;
#X obj 615 196 * 0.6;
#X obj 615 326 line~;
#X msg 615 301 \$1 10;
#X obj 688 216 loadbang;
#X text 675 305 feedback;
#X obj 265 74 *;
#X msg 688 244 0.7;
#X obj 615 276 clip 0 0.6;
#X obj 615 221 + 0.2;
#X obj 698 437 line~;
#X msg 698 412 \$1 10;
#X obj 698 383 receive feedbackToggle;
#X obj 667 360 loadbang;
#X msg 667 383 1;
#X obj 143 240 sqrt;
#X obj 143 360 line~;
#X text 137 436 delay level;
#X msg 143 335 \$1 200;
#X obj 98 417 *~, f 8;
#X obj 349 502 outlet~;
#X obj 615 470 *~;
#X obj 438 621 delwrite~ delay1 1000;
#X obj 579 621 delwrite~ delay2 400;
#X obj 438 548 *~, f 30;
#X obj 468 499 outlet~;
#X obj 438 370 lop~ 4000;
#X obj 493 52 r delayTime;
#X obj 415 38 r delayLvl;
#X obj 372 345 r feedback;
#X obj 596 75 r delayTimeSpread;
#X floatatom 502 217 0 0 1000 0 - - -;
#X obj 492 271 line~;
#X msg 492 246 \$1 10;
#X obj 318 121 loadbang;
#X obj 264 231 line~;
#X msg 264 206 \$1 10;
#X obj 437 313 delread4~ delay1;
#X obj 269 275 delread4~ delay2;
#X obj 597 98 * 0.5;
#X obj 596 121 + 0.5;
#X obj 536 138 *;
#X obj 585 146 t b f;
#X floatatom 262 188 0 0 1000 0 - - -;
#X msg 262 164 440;
#X msg 465 181 500;
#X obj 327 308 loadbang;
#X obj 299 430 line~;
#X msg 299 405 \$1 10;
#X floatatom 322 357 0 0 1000 0 - - -;
#X obj 296 385 * -0.8;
#X msg 325 338 0.8;
#X obj 252 449 *~, f 8;
#X obj 351 435 line~;
#X msg 351 410 \$1 10;
#X obj 348 390 * 0.9;
#X obj 438 401 *~;
#X floatatom 180 295 5 0 0 0 - - -;
#X obj 945 182 receive delaytidGrid;
#X obj 505 74 * 1000;
#X obj 496 107 f;
#X msg 947 220 \$2;
#X obj 947 249 sel 0 1 2;
#X obj 813 178 receive tempoSec;
#X obj 876 337 *;
#X obj 813 215 t b f;
#X msg 885 284 4;
#X msg 926 306 6;
#X msg 976 314 8;
#X connect 0 0 20 0;
#X connect 1 0 7 0;
#X connect 1 0 7 1;
#X connect 2 0 10 0;
#X connect 3 0 22 0;
#X connect 4 0 3 0;
#X connect 5 0 8 0;
#X connect 7 0 2 0;
#X connect 7 0 16 0;
#X connect 8 0 9 0;
#X connect 9 0 4 0;
#X connect 10 0 9 0;
#X connect 11 0 22 1;
#X connect 12 0 11 0;
#X connect 13 0 12 0;
#X connect 14 0 15 0;
#X connect 15 0 12 0;
#X connect 16 0 19 0;
#X connect 16 0 58 0;
#X connect 17 0 20 1;
#X connect 19 0 17 0;
#X connect 20 0 23 0;
#X connect 22 0 25 1;
#X connect 25 0 23 0;
#X connect 25 0 24 0;
#X connect 27 0 57 0;
#X connect 28 0 60 0;
#X connect 29 0 7 0;
#X connect 29 0 7 1;
#X connect 30 0 50 0;
#X connect 31 0 40 0;
#X connect 32 0 34 0;
#X connect 33 0 38 0;
#X connect 34 0 33 0;
#X connect 35 0 46 0;
#X connect 35 0 45 0;
#X connect 36 0 39 0;
#X connect 37 0 36 0;
#X connect 38 0 27 0;
#X connect 39 0 53 0;
#X connect 40 0 41 0;
#X connect 41 0 43 0;
#X connect 42 0 44 0;
#X connect 43 0 42 0;
#X connect 43 1 42 1;
#X connect 44 0 37 0;
#X connect 45 0 44 0;
#X connect 46 0 32 0;
#X connect 47 0 52 0;
#X connect 48 0 53 1;
#X connect 49 0 48 0;
#X connect 50 0 51 0;
#X connect 50 0 56 0;
#X connect 51 0 49 0;
#X connect 52 0 50 0;
#X connect 53 0 23 0;
#X connect 53 0 21 0;
#X connect 54 0 57 1;
#X connect 55 0 54 0;
#X connect 56 0 55 0;
#X connect 57 0 25 0;
#X connect 57 0 26 0;
#X connect 59 0 62 0;
#X connect 60 0 61 0;
#X connect 61 0 42 0;
#X connect 61 0 32 0;
#X connect 62 0 63 0;
#X connect 63 0 67 0;
#X connect 63 1 68 0;
#X connect 63 2 69 0;
#X connect 64 0 66 0;
#X connect 65 0 61 0;
#X connect 66 0 65 0;
#X connect 66 1 65 1;
#X connect 67 0 65 0;
#X connect 68 0 65 0;
#X connect 69 0 65 0;
#X restore 55 379 pd delay-stuff;
#X text 371 289 variable dance mode BPM;
#N canvas 0 23 259 303 userVolume 0;
#X obj 62 36 inlet~;
#X obj 62 252 outlet~;
#X obj 77 176 line~;
#X msg 77 153 \$1 10;
#X obj 77 74 receive userVolume;
#X obj 62 211 *~;
#X obj 134 257 outlet~;
#X obj 134 216 *~;
#X obj 125 36 inlet~;
#X connect 0 0 5 0;
#X connect 2 0 5 1;
#X connect 2 0 7 1;
#X connect 3 0 2 0;
#X connect 4 0 3 0;
#X connect 5 0 1 0;
#X connect 7 0 6 0;
#X connect 8 0 7 0;
#X restore 16 542 pd userVolume;
#X obj 122 448 *~, f 9;
#X obj 86 250 unpack f f, f 11;
#X floatatom 274 337 5 0 0 0 - - -;
#X obj 149 205 route /tilts /accel /gyro /motion;
#X obj 144 146 receive froxmSystem;
#N canvas 1453 144 652 395 PadMode 0;
#X obj 47 119 sel 1;
#X msg 272 207 \; DancePitch 24 24;
#X obj 47 27 receive padMode;
#X msg 391 208 \; DanceXY 0.91 0.95;
#X msg 47 206 \; playthru 0;
#X msg 128 207 \; DanceDuration 80 400;
#X msg 520 203 \; feedback 0.9;
#X msg 289 124 \; delayLvl 0.9;
#X connect 0 0 4 0;
#X connect 0 0 5 0;
#X connect 0 0 1 0;
#X connect 0 0 3 0;
#X connect 0 0 6 0;
#X connect 0 0 7 0;
#X connect 2 0 0 0;
#X restore 365 551 pd PadMode;
#X obj 200 268 receive reverbLvl;
#X obj 203 316 * 0.1;
#N canvas 833 35 1014 1110 pitcheddelay 0;
#X obj 102 48 inlet~;
#X obj 235 697 outlet~;
#X obj 322 285 mtof;
#X floatatom 320 234 5 0 0 0 - - -;
#X floatatom 860 611 8 0 0 0 - - -;
#X obj 317 453 expr 1000 / $f1;
#X floatatom 320 198 5 0 0 0 - - -;
#X obj 100 994 hip~ 5;
#N canvas 116 760 854 541 delayband 0;
#X obj 78 259 outlet~;
#X obj 74 141 delread4~ pitchdelay1;
#X obj 68 22 inlet;
#X obj 75 112 line~;
#X obj 331 34 inlet;
#X floatatom 276 171 5 0 0 0 - - -;
#X floatatom 206 74 5 0 0 0 - - -;
#X obj 161 215 line~;
#X msg 161 190 \$1 10;
#X obj 71 196 *~;
#X obj 78 57 expr $f1 / $f2;
#X msg 75 87 \$1 100;
#X connect 1 0 9 0;
#X connect 2 0 10 0;
#X connect 3 0 1 0;
#X connect 4 0 8 0;
#X connect 7 0 9 1;
#X connect 8 0 7 0;
#X connect 9 0 0 0;
#X connect 10 0 5 0;
#X connect 10 0 11 0;
#X connect 11 0 3 0;
#X restore 322 583 pd delayband;
#X obj 486 664 lop~ 4000;
#N canvas 264 293 854 541 delayband 0;
#X obj 78 259 outlet~;
#X obj 74 141 delread4~ pitchdelay1;
#X obj 68 22 inlet;
#X obj 75 112 line~;
#X obj 331 34 inlet;
#X floatatom 276 171 5 0 0 0 - - -;
#X floatatom 206 74 5 0 0 0 - - -;
#X obj 161 215 line~;
#X msg 161 190 \$1 10;
#X obj 71 196 *~;
#X obj 78 57 expr $f1 / $f2;
#X msg 75 87 \$1 100;
#X connect 1 0 9 0;
#X connect 2 0 10 0;
#X connect 3 0 1 0;
#X connect 4 0 8 0;
#X connect 7 0 9 1;
#X connect 8 0 7 0;
#X connect 9 0 0 0;
#X connect 10 0 5 0;
#X connect 10 0 11 0;
#X connect 11 0 3 0;
#X restore 413 582 pd delayband;
#N canvas 691 92 854 541 delayband 0;
#X obj 78 259 outlet~;
#X obj 74 141 delread4~ pitchdelay1;
#X obj 68 22 inlet;
#X obj 75 112 line~;
#X obj 252 33 inlet;
#X obj 242 147 line~;
#X msg 242 122 \$1 10;
#X obj 71 196 *~;
#X obj 78 57 expr $f1 / $f2;
#X msg 75 87 \$1 100;
#X connect 1 0 7 0;
#X connect 2 0 8 0;
#X connect 3 0 1 0;
#X connect 4 0 6 0;
#X connect 5 0 7 1;
#X connect 6 0 5 0;
#X connect 7 0 0 0;
#X connect 8 0 9 0;
#X connect 9 0 3 0;
#X restore 532 579 pd delayband;
#X obj 100 1021 delwrite~ pitchdelay1 1000;
#X obj 860 437 * 16;
#X obj 390 892 line~;
#X obj 501 936 *~;
#N canvas 329 161 294 380 limit-feedback 0;
#X obj 42 62 env~ 1024;
#X obj 42 25 inlet~;
#X obj 42 320 outlet;
#X obj 42 99 t f b;
#X obj 42 136 - 95;
#X obj 42 283 * -0.01;
#X obj 42 173 moses 0 10;
#X floatatom 99 210 5 0 0 0 - - -;
#X floatatom 42 247 5 0 0 0 - - -;
#X msg 42 210 0;
#X connect 0 0 3 0;
#X connect 1 0 0 0;
#X connect 3 0 4 0;
#X connect 4 0 6 0;
#X connect 5 0 2 0;
#X connect 6 0 9 0;
#X connect 6 1 7 0;
#X connect 7 0 8 0;
#X connect 8 0 5 0;
#X connect 9 0 8 0;
#X restore 362 743 pd limit-feedback;
#X obj 386 801 + 0;
#X obj 380 773 t b f;
#X msg 391 855 \$1 10;
#X obj 514 399 receive pitchDelayFeedbacks;
#X obj 615 530 expr $f3/($f1 + $f2 + $f3 + 0.00001);
#X obj 515 479 expr $f2/($f1 + $f2 + $f3 + 0.00001);
#X obj 451 440 expr $f1/($f1 + $f2 + $f3 + 0.00001);
#X msg 317 515 \$1 0.5;
#X msg 431 519 \$1 1;
#X msg 547 535 \$1 2;
#X obj 172 741 receive pitchDelayFeedback;
#X obj 482 43 unpack f f;
#X obj 482 228 int, f 5;
#X floatatom 481 276 5 0 0 0 - - -;
#X obj 477 17 receive keysXYSlider;
#X obj 479 193 + 0;
#X obj 481 296 + 36;
#X obj 479 160 * 25.5;
#X obj 560 157 * 15;
#X obj 663 176 table tonic;
#X obj 538 256 tabread tonic;
#X obj 555 220 int, f 5;
#X obj 571 186 + 0;
#X msg 663 138 \; tonic 0 0 2 4 5 7 9 11 12 14 16 17 19 21 23 24 24
;
#X obj 663 117 loadbang;
#X obj 540 68 > 0.5;
#X obj 482 90 pack f f;
#X msg 482 111 \$2 \$1;
#X obj 480 135 route 1 0;
#X obj 161 770 * 2;
#X obj 126 796 clip 0 1;
#X obj 98 870 *~;
#X obj 112 844 line~;
#X msg 121 821 \$1 10;
#X obj 138 434 clip 0.1 0.6;
#X obj 147 485 expr 2*abs(1-($f1-0.1))-1;
#X obj 148 661 *~;
#X obj 152 598 line~;
#X msg 157 561 \$1 10;
#X obj 320 81 r notein;
#X obj 138 367 receive pitchDelayFeedback;
#X connect 0 0 48 0;
#X connect 0 0 53 0;
#X connect 2 0 5 0;
#X connect 2 0 13 0;
#X connect 3 0 2 0;
#X connect 4 0 9 1;
#X connect 5 0 24 0;
#X connect 5 0 25 0;
#X connect 5 0 26 0;
#X connect 6 0 3 0;
#X connect 7 0 12 0;
#X connect 8 0 9 0;
#X connect 9 0 1 0;
#X connect 9 0 15 0;
#X connect 9 0 16 0;
#X connect 10 0 9 0;
#X connect 11 0 9 0;
#X connect 13 0 4 0;
#X connect 14 0 15 1;
#X connect 15 0 7 0;
#X connect 16 0 18 0;
#X connect 17 0 19 0;
#X connect 18 0 17 0;
#X connect 18 1 17 1;
#X connect 19 0 14 0;
#X connect 20 0 21 0;
#X connect 20 0 22 0;
#X connect 20 0 23 0;
#X connect 21 0 11 1;
#X connect 22 0 10 1;
#X connect 23 0 8 1;
#X connect 24 0 8 0;
#X connect 25 0 10 0;
#X connect 26 0 11 0;
#X connect 27 0 17 0;
#X connect 27 0 46 0;
#X connect 28 0 43 0;
#X connect 28 1 42 0;
#X connect 29 0 30 0;
#X connect 30 0 33 0;
#X connect 31 0 28 0;
#X connect 32 0 29 0;
#X connect 33 0 6 0;
#X connect 34 0 32 0;
#X connect 35 0 39 0;
#X connect 37 0 33 0;
#X connect 38 0 37 0;
#X connect 39 0 38 0;
#X connect 41 0 40 0;
#X connect 42 0 43 1;
#X connect 43 0 44 0;
#X connect 44 0 45 0;
#X connect 45 0 34 0;
#X connect 45 1 35 0;
#X connect 46 0 47 0;
#X connect 47 0 50 0;
#X connect 48 0 7 0;
#X connect 49 0 48 1;
#X connect 50 0 49 0;
#X connect 51 0 52 0;
#X connect 52 0 55 0;
#X connect 53 0 1 0;
#X connect 54 0 53 1;
#X connect 55 0 54 0;
#X connect 56 0 6 0;
#X connect 57 0 51 0;
#X restore 16 330 pd pitcheddelay;
#X text 370 305 Separat opptak og muting audio input 1 og 2 2 buffere
backup-buffer (hvis opptaket blir drlig) Opptak overlapp inn i eksisterende
buffer Pitched short delay Tempo Bedre pitche-funksjon. Velge oktav/kvint
feks.;
#X text 373 236 normalize buffer flere steg;
#X text 370 257 volum p grains;
#X connect 1 0 34 0;
#X connect 4 0 29 0;
#X connect 7 0 25 0;
#X connect 7 0 25 1;
#X connect 8 0 7 0;
#X connect 9 0 8 1;
#X connect 10 0 9 0;
#X connect 12 0 1 0;
#X connect 15 0 8 0;
#X connect 15 0 25 0;
#X connect 17 0 20 0;
#X connect 17 1 19 0;
#X connect 17 2 19 1;
#X connect 18 0 15 1;
#X connect 18 0 26 1;
#X connect 22 0 0 0;
#X connect 22 1 0 1;
#X connect 23 0 15 0;
#X connect 23 1 26 0;
#X connect 25 0 22 0;
#X connect 25 1 22 1;
#X connect 26 0 8 0;
#X connect 26 0 25 1;
#X connect 27 0 1 1;
#X connect 29 0 27 0;
#X connect 30 0 4 0;
#X connect 32 0 33 0;
#X connect 33 0 10 0;
#X connect 33 0 28 0;
#X connect 34 0 23 0;
#X connect 34 0 15 0;
#X connect 34 0 26 0;
