#N canvas 590 23 581 698 10;
#X obj 16 605 dac~;
#N canvas 216 109 488 258 playgrain 0;
#X obj 28 32 inlet;
#X obj 28 206 outlet~;
#N canvas 221 184 994 562 graindetails 0;
#X obj 260 341 nbx 5 14 -1e+37 1e+37 0 0 empty empty empty 0 -8 0 10
-262144 -1 -1 0 256;
#X obj 468 369 nbx 5 14 -1e+37 1e+37 0 0 empty empty empty 0 -8 0 10
-262144 -1 -1 0 256;
#X obj 99 342 nbx 5 14 -1e+37 1e+37 0 0 empty empty empty 0 -8 0 10
-262144 -1 -1 0 256;
#X obj 274 82 route range;
#X obj 365 82 route range;
#N canvas 298 423 450 300 randomFromRange 0;
#X obj 88 46 inlet;
#X obj 88 160 random;
#X obj 135 97 unpack;
#X obj 134 132 expr $f2 - $f1;
#X obj 88 198 +;
#X obj 88 230 outlet;
#X obj 135 47 inlet;
#X text 200 78 selecting a random number from a range;
#X text 139 25 range;
#X text 79 25 trigger;
#X connect 0 0 1 0;
#X connect 1 0 4 0;
#X connect 2 0 3 0;
#X connect 2 0 4 1;
#X connect 2 1 3 1;
#X connect 3 0 1 1;
#X connect 4 0 5 0;
#X connect 6 0 2 0;
#X restore 260 270 pd randomFromRange;
#X obj 468 311 - 24;
#X obj 45 22 inlet;
#X obj 120 515 outlet;
#X obj 45 193 t b b b b;
#X obj 45 343 + 1;
#X obj 45 375 % 6;
#X obj 45 302 i;
#X obj 120 467 pack 0 0 0 0;
#X obj 600 14 inlet;
#N canvas 336 154 525 510 tiltselectFromRange 0;
#X obj 70 46 inlet;
#X obj 70 478 outlet;
#X obj 185 47 inlet;
#X text 61 25 trigger;
#X obj 185 120 t b l;
#X text 189 25 0:grunntone 1:durters 2:kvint;
#X obj 212 217 sel 0 1 2, f 41;
#X msg 212 259 23 24 26;
#X msg 293 259 26 28 29;
#X msg 374 259 29 31 33;
#X obj 70 452 change;
#X obj 70 369 i;
#X obj 127 369 i;
#X obj 177 369 i;
#X obj 212 310 unpack 0 0 0;
#X obj 127 304 sel 1 0;
#X obj 70 277 t b;
#X obj 70 233 moses -0.5;
#X obj 127 277 < 0.5;
#X obj 70 202 f;
#X connect 0 0 19 0;
#X connect 2 0 4 0;
#X connect 4 0 19 0;
#X connect 4 1 6 0;
#X connect 6 0 7 0;
#X connect 6 1 8 0;
#X connect 6 2 9 0;
#X connect 7 0 14 0;
#X connect 8 0 14 0;
#X connect 9 0 14 0;
#X connect 10 0 1 0;
#X connect 11 0 10 0;
#X connect 12 0 10 0;
#X connect 13 0 10 0;
#X connect 14 0 11 1;
#X connect 14 1 12 1;
#X connect 14 2 13 1;
#X connect 15 0 12 0;
#X connect 15 1 13 0;
#X connect 16 0 11 0;
#X connect 17 0 16 0;
#X connect 17 1 18 0;
#X connect 18 0 15 0;
#X connect 19 0 17 0;
#X restore 468 272 pd tiltselectFromRange;
#X obj 274 17 receive ranges;
#N canvas 476 115 777 545 scaledurations 0;
#X obj 154 139 + 2;
#X obj 154 112 unpack 0 0;
#X obj 211 141 + 2;
#X obj 154 181 *;
#X obj 211 181 *;
#X obj 154 291 pack 0 0, f 10;
#X obj 154 89 inlet;
#X obj 154 463 outlet;
#X obj 418 284 f, f 28;
#X obj 513 233 spigot;
#X obj 418 86 receive playthru;
#X msg 418 311 \$1 \$1;
#X obj 418 234 sel 1;
#X obj 583 18 inlet;
#X obj 583 42 expr $f2 - $f1;
#X obj 583 66 / 44.1;
#X obj 154 392 spigot;
#X obj 242 223 t b f;
#X obj 251 193 == 0;
#X text 423 342 if playthru \, then set duration equal to selection
;
#X obj 583 89 moses 10;
#X obj 328 203 loadbang;
#X msg 362 255 1;
#X msg 291 256 100;
#X obj 328 224 t b b b;
#X msg 330 256 100;
#X text 18 210 exponential scaling of input;
#X msg 583 138 10;
#X obj 583 111 t b;
#X obj 628 172 * 1;
#X obj 21 325 receive DanceDuration;
#X connect 0 0 3 0;
#X connect 0 0 3 1;
#X connect 1 0 0 0;
#X connect 1 1 2 0;
#X connect 2 0 4 0;
#X connect 2 0 4 1;
#X connect 3 0 5 0;
#X connect 4 0 5 1;
#X connect 5 0 16 0;
#X connect 6 0 1 0;
#X connect 8 0 11 0;
#X connect 9 0 8 0;
#X connect 10 0 9 1;
#X connect 10 0 12 0;
#X connect 10 0 18 0;
#X connect 11 0 7 0;
#X connect 12 0 8 0;
#X connect 13 0 14 0;
#X connect 14 0 15 0;
#X connect 15 0 20 0;
#X connect 16 0 7 0;
#X connect 17 0 5 0;
#X connect 17 1 16 1;
#X connect 18 0 17 0;
#X connect 20 0 28 0;
#X connect 20 1 29 0;
#X connect 21 0 24 0;
#X connect 22 0 16 1;
#X connect 23 0 5 0;
#X connect 24 0 23 0;
#X connect 24 1 25 0;
#X connect 24 2 22 0;
#X connect 25 0 5 1;
#X connect 27 0 29 0;
#X connect 28 0 27 0;
#X connect 29 0 8 1;
#X connect 29 0 9 0;
#X connect 30 0 7 0;
#X restore 365 132 pd scaledurations;
#N canvas 25 381 450 300 randomFromRange 0;
#X obj 88 46 inlet;
#X obj 88 160 random;
#X obj 135 97 unpack;
#X obj 134 132 expr $f2 - $f1;
#X obj 88 198 +;
#X obj 88 230 outlet;
#X obj 135 47 inlet;
#X text 200 78 selecting a random number from a range;
#X text 139 25 range;
#X text 79 25 trigger;
#X connect 0 0 1 0;
#X connect 1 0 4 0;
#X connect 2 0 3 0;
#X connect 2 0 4 1;
#X connect 2 1 3 1;
#X connect 3 0 1 1;
#X connect 4 0 5 0;
#X connect 6 0 2 0;
#X restore 99 268 pd randomFromRange;
#N canvas 173 96 617 575 ifPlaythru 0;
#X obj 30 9 inlet;
#X obj 30 414 outlet;
#X obj 247 34 receive playthru;
#X obj 30 344 spigot, f 7;
#X obj 30 292 pack;
#X obj 42 245 t b f;
#X obj 42 113 == 0;
#X msg 247 369 \$1 \$1;
#X obj 247 291 pack;
#X obj 247 160 t b f, f 8;
#X obj 247 343 spigot, f 8;
#X text 258 396 if playthru option is enabled;
#X text 258 410 playback will always start at;
#X text 257 424 the first selected sample;
#X obj 71 152 loadbang;
#X msg 159 248 0 88200;
#X msg 71 217 1;
#X obj 71 197 del 1;
#X obj 456 160 * 44.1;
#X obj 396 85 receive DanceRange;
#X obj 456 131 receive BufferLength;
#X obj 456 187 * 0.9;
#X obj 411 230 pack 0 0;
#X msg 411 185 0;
#X connect 0 0 4 0;
#X connect 0 0 8 0;
#X connect 2 0 6 0;
#X connect 2 0 9 0;
#X connect 3 0 1 0;
#X connect 4 0 3 0;
#X connect 5 0 4 0;
#X connect 5 1 3 1;
#X connect 6 0 5 0;
#X connect 7 0 1 0;
#X connect 8 0 10 0;
#X connect 9 0 8 0;
#X connect 9 1 10 1;
#X connect 10 0 7 0;
#X connect 14 0 15 0;
#X connect 14 0 17 0;
#X connect 15 0 8 0;
#X connect 15 0 4 0;
#X connect 16 0 5 0;
#X connect 17 0 16 0;
#X connect 18 0 21 0;
#X connect 19 0 23 0;
#X connect 20 0 18 0;
#X connect 21 0 22 1;
#X connect 22 0 1 0;
#X connect 23 0 22 0;
#X restore 204 175 pd ifPlaythru;
#X obj 180 14 loadbang;
#X text 270 321 duration (ms);
#X text 102 321 start time (sample);
#X text 485 349 pitch shift;
#X msg 180 38 range 0 88200;
#X obj 274 50 route /audiobuffer /durationrange /pitchcentre;
#X obj 744 280 send toGUI;
#X obj 744 199 t l b;
#X obj 744 134 unpack 0 0 0;
#X obj 744 163 pack 0 0 1;
#X obj 744 227 list prepend /pitchcentre set;
#X msg 782 249 list /pitchcentre clear;
#X msg 597 241 \$1;
#X obj 744 57 loadbang;
#X msg 744 86 0 0 1;
#X obj 570 342 receive octave;
#X obj 468 429 + 0;
#X obj 597 391 * 12;
#X obj 468 460 + 0;
#X obj 634 399 receive semi;
#X obj 570 365 t b i;
#X obj 634 422 t b i;
#X connect 0 0 13 2;
#X connect 1 0 36 0;
#X connect 2 0 13 1;
#X connect 3 0 17 1;
#X connect 3 0 19 0;
#X connect 4 0 17 0;
#X connect 5 0 0 0;
#X connect 6 0 1 0;
#X connect 7 0 9 0;
#X connect 9 0 12 0;
#X connect 9 1 18 0;
#X connect 9 2 5 0;
#X connect 10 0 11 0;
#X connect 10 0 12 1;
#X connect 11 0 13 0;
#X connect 12 0 10 0;
#X connect 13 0 8 0;
#X connect 14 0 15 0;
#X connect 15 0 6 0;
#X connect 16 0 25 0;
#X connect 17 0 5 1;
#X connect 18 0 2 0;
#X connect 19 0 18 1;
#X connect 20 0 24 0;
#X connect 24 0 3 0;
#X connect 25 0 3 0;
#X connect 25 1 4 0;
#X connect 25 2 28 0;
#X connect 25 2 32 0;
#X connect 27 0 30 0;
#X connect 27 1 31 0;
#X connect 28 0 29 0;
#X connect 28 1 29 1;
#X connect 29 0 27 0;
#X connect 30 0 26 0;
#X connect 31 0 26 0;
#X connect 32 0 15 1;
#X connect 33 0 34 0;
#X connect 34 0 28 0;
#X connect 34 0 32 0;
#X connect 35 0 40 0;
#X connect 36 0 38 0;
#X connect 37 0 36 1;
#X connect 38 0 13 3;
#X connect 39 0 41 0;
#X connect 40 0 1 0;
#X connect 40 1 37 0;
#X connect 41 0 1 0;
#X connect 41 1 38 1;
#X restore 28 61 pd graindetails;
#X obj 28 129 shootgrain;
#X obj 115 32 inlet, f 6;
#X obj 28 93 route 0 1 2 3 4 5, f 71;
#X obj 98 129 shootgrain;
#X obj 169 129 shootgrain;
#X obj 239 129 shootgrain;
#X obj 310 129 shootgrain;
#X obj 380 130 shootgrain;
#X connect 0 0 2 0;
#X connect 2 0 5 0;
#X connect 3 0 1 0;
#X connect 4 0 2 1;
#X connect 5 0 3 0;
#X connect 5 1 6 0;
#X connect 5 2 7 0;
#X connect 5 3 8 0;
#X connect 5 4 9 0;
#X connect 5 5 10 0;
#X connect 6 0 1 0;
#X connect 7 0 1 0;
#X connect 8 0 1 0;
#X connect 9 0 1 0;
#X connect 10 0 1 0;
#X restore 16 316 pd playgrain;
#X obj 365 455 table /durationrange 40;
#X obj 365 433 table /pitchrange 49;
#X obj 148 187 receive fromSystem;
#X obj 148 213 list trim;
#X obj 85 282 unpack, f 11;
#X text 374 348 By Kristian Nymoen \, 2015;
#N canvas 396 40 826 683 window-stuff 0;
#X obj 83 96 + 1;
#X obj 103 278 route 1;
#X obj 103 254 pack, f 7;
#X obj 142 375 pack, f 8;
#X msg 142 303 \$2;
#X obj 142 353 > 383;
#X obj 103 232 < 129;
#X obj 142 400 route 1;
#X obj 181 424 t b;
#X msg 153 477 1;
#X obj 103 442 / 511;
#X obj 103 481 * 2;
#X obj 116 151 < 512;
#X obj 83 178 spigot;
#X obj 84 10 bng 15 250 50 0 empty empty empty 17 7 0 10 -262144 -1
-1;
#X obj 2 133 del 1;
#X obj 169 69 sel 0;
#X msg 169 116 -1;
#X obj 83 59 i -1;
#X obj 169 93 del 1;
#X obj 103 566 expr if ($i2 \, sqrt($f1) \, $f1);
#X obj 264 546 tgl 15 0 empty empty empty 17 7 0 10 -262144 -1 -1 0
1;
#X text 283 546 toggle to enable sqrt of hanning;
#X text 102 9 bang to write window;
#X obj 83 207 t b f f f, f 13;
#X obj 83 124 t f f;
#X obj 142 326 t f f, f 8;
#X obj 102 606 tabwrite window;
#N canvas 0 22 635 415 (subpatch) 0;
#X array window 512 float 1;
#A 0 0 0.000151157 0.00060457 0.00135997 0.00241691 0.00377476 0.00543267
0.00738966 0.00964454 0.012196 0.0150424 0.0181821 0.0216131 0.0253334
0.0293408 0.0336328 0.0382068 0.04306 0.0481896 0.0535924 0.0592651
0.0652044 0.0714067 0.077868 0.0845847 0.0915525 0.0987674 0.106225
0.113921 0.12185 0.130007 0.138389 0.146989 0.155803 0.164825 0.174049
0.183471 0.193084 0.202882 0.212861 0.223012 0.233332 0.243813 0.254448
0.265232 0.276158 0.28722 0.29841 0.309722 0.321149 0.332684 0.344321
0.356051 0.367869 0.379766 0.391736 0.403772 0.415866 0.428011 0.440199
0.452423 0.464677 0.476951 0.48924 0.501535 0.513829 0.526115 0.538385
0.550631 0.562847 0.575025 0.587158 0.599238 0.611258 0.623211 0.635089
0.646886 0.658593 0.670205 0.681714 0.693113 0.704395 0.715554 0.726582
0.737473 0.748221 0.758818 0.76926 0.779538 0.789647 0.799581 0.809334
0.818899 0.828272 0.837447 0.846417 0.855178 0.863724 0.87205 0.880151
0.888023 0.895659 0.903057 0.91021 0.917116 0.923769 0.930166 0.936303
0.942176 0.947782 0.953117 0.958178 0.962961 0.967465 0.971686 0.975622
0.979271 0.982629 0.985696 0.988469 0.990946 0.993127 0.995009 0.996592
0.997875 0.998857 0.999537 0.999915 0.999991 1 1 1 1 1 1 1 1 1 1 1
1 1 1 1 1 1 1 1 1 1 1 1 1 1 1 1 1 1 1 1 1 1 1 1 1 1 1 1 1 1 1 1 1 1
1 1 1 1 1 1 1 1 1 1 1 1 1 1 1 1 1 1 1 1 1 1 1 1 1 1 1 1 1 1 1 1 1 1
1 1 1 1 1 1 1 1 1 1 1 1 1 1 1 1 1 1 1 1 1 1 1 1 1 1 1 1 1 1 1 1 1 1
1 1 1 1 1 1 1 1 1 1 1 1 1 1 1 1 1 1 1 1 1 1 1 1 1 1 1 1 1 1 1 1 1 1
1 1 1 1 1 1 1 1 1 1 1 1 1 1 1 1 1 1 1 1 1 1 1 1 1 1 1 1 1 1 1 1 1 1
1 1 1 1 1 1 1 1 1 1 1 1 1 1 1 1 1 1 1 1 1 1 1 1 1 1 1 1 1 1 1 1 1 1
1 1 1 1 1 1 1 1 1 1 1 1 1 1 1 1 1 1 1 1 1 1 1 1 1 1 1 1 1 1 1 1 1 1
1 1 1 1 1 1 0.999915 0.999537 0.998857 0.997876 0.996593 0.99501 0.993128
0.990948 0.988471 0.985698 0.982631 0.979273 0.975625 0.971689 0.967468
0.962965 0.958181 0.95312 0.947786 0.94218 0.936307 0.93017 0.923774
0.917121 0.910215 0.903062 0.895665 0.888029 0.880157 0.872056 0.86373
0.855184 0.846424 0.837454 0.828279 0.818907 0.80934 0.799588 0.789654
0.779545 0.769267 0.758826 0.748229 0.737482 0.72659 0.715562 0.704403
0.693121 0.681723 0.670214 0.658602 0.646895 0.635098 0.62322 0.611267
0.599247 0.587167 0.575035 0.562857 0.55064 0.538393 0.526124 0.513838
0.501544 0.489249 0.476961 0.464686 0.452432 0.440208 0.42802 0.415875
0.403781 0.391746 0.379775 0.367877 0.35606 0.344329 0.332693 0.321158
0.309731 0.298419 0.287228 0.276166 0.26524 0.254456 0.24382 0.23334
0.22302 0.212868 0.202889 0.193091 0.183478 0.174056 0.164831 0.15581
0.146996 0.138395 0.130013 0.121855 0.113926 0.106231 0.098773 0.091558
0.0845895 0.0778727 0.0714112 0.0652089 0.0592695 0.0535966 0.0481936
0.0430635 0.0382101 0.0336359 0.0293438 0.0253363 0.0216157 0.0181845
0.0150445 0.0121979 0.00964627 0.00739118 0.00543401 0.00377586 0.0024178
0.00136065 0.000604987 0.000151366 0;
#X coords 0 1 511 0 100 50 1 0 0;
#X restore 292 84 graph;
#X obj 369 428 expr 0.5 * (1 + cos((3.14159 + 3.14159*2* $f1)));
#X obj 103 516 expr 0.5 * (1 + cos((3.14159 + 3.14159*2* $f1)));
#X connect 0 0 18 1;
#X connect 0 0 25 0;
#X connect 1 0 10 0;
#X connect 1 1 4 0;
#X connect 2 0 1 0;
#X connect 3 0 7 0;
#X connect 4 0 26 0;
#X connect 5 0 3 0;
#X connect 6 0 2 0;
#X connect 7 0 10 0;
#X connect 7 1 8 0;
#X connect 8 0 9 0;
#X connect 9 0 27 0;
#X connect 10 0 11 0;
#X connect 11 0 30 0;
#X connect 12 0 13 1;
#X connect 12 0 16 0;
#X connect 13 0 24 0;
#X connect 14 0 18 0;
#X connect 15 0 18 0;
#X connect 16 0 19 0;
#X connect 17 0 18 1;
#X connect 18 0 0 0;
#X connect 19 0 17 0;
#X connect 20 0 27 0;
#X connect 21 0 20 1;
#X connect 24 0 15 0;
#X connect 24 1 6 0;
#X connect 24 2 2 1;
#X connect 24 3 27 1;
#X connect 25 0 13 0;
#X connect 25 1 12 0;
#X connect 26 0 5 0;
#X connect 26 1 3 1;
#X connect 30 0 20 0;
#X restore 365 486 pd window-stuff;
#N canvas 424 23 674 425 reverb-stuff 0;
#X obj 131 90 hsl 128 15 0 1 0 1 empty empty 'roomsize' 20 8 0 10 -262144
-260097 -1 11697 0;
#X obj 148 136 hsl 128 15 0 2 0 1 empty empty damp 20 8 0 10 -262144
-260097 -1 11798 0;
#X floatatom 134 109 5 0 0 0 - - -, f 5;
#X floatatom 151 155 5 0 0 0 - - -, f 5;
#X obj 173 232 hsl 128 15 0 1 0 1 empty empty wet 20 8 0 10 -262144
-260097 -1 12700 0;
#X obj 163 179 hsl 128 15 0 1 0 1 empty empty dry 20 8 0 10 -262144
-260097 -1 10998 0;
#X floatatom 175 251 5 0 0 0 - - -, f 5;
#X floatatom 166 198 5 0 0 0 - - -, f 5;
#N canvas 335 277 634 321 vfreeverb~ 0;
#N canvas 261 41 778 367 combfilters-left1 0;
#X obj 46 244 +~;
#X obj 61 219 *~ 0.3;
#X obj 61 194 lop~ 1000;
#X obj 231 244 +~;
#X obj 246 219 *~ 0.3;
#X obj 246 194 lop~ 1000;
#X obj 429 218 *~ 0.3;
#X obj 429 193 lop~ 1000;
#X obj 414 241 +~;
#X obj 610 218 *~ 0.3;
#X obj 610 193 lop~ 1000;
#X obj 595 241 +~;
#X obj 61 141 delread~ \$0-comb1left;
#X obj 246 142 delread~ \$0-comb2left;
#X obj 429 141 delread~ \$0-comb3left;
#X obj 610 141 delread~ \$0-comb4left;
#X obj 46 268 delwrite~ \$0-comb1left 100;
#X obj 231 268 delwrite~ \$0-comb2left 100;
#X obj 414 267 delwrite~ \$0-comb3left 100;
#X obj 595 267 delwrite~ \$0-comb4left 100;
#X obj 61 97 r \$0-comb1left;
#X obj 246 97 r \$0-comb2left;
#X obj 429 95 r \$0-comb3left;
#X obj 610 96 r \$0-comb4left;
#X obj 112 170 r \$0-frequency;
#X obj 297 170 r \$0-frequency;
#X obj 480 167 r \$0-frequency;
#X obj 661 167 r \$0-frequency;
#X obj 46 28 inlet~;
#X obj 338 326 outlet~;
#X floatatom 70 119 5 0 0 0 - - -, f 5;
#X floatatom 255 121 5 0 0 0 - - -, f 5;
#X floatatom 439 119 5 0 0 0 - - -, f 5;
#X floatatom 622 121 5 0 0 0 - - -, f 5;
#X obj 279 58 clip 0 0.99;
#X obj 279 29 r \$0-room;
#X connect 0 0 16 0;
#X connect 1 0 0 1;
#X connect 2 0 1 0;
#X connect 3 0 17 0;
#X connect 4 0 3 1;
#X connect 5 0 4 0;
#X connect 6 0 8 1;
#X connect 7 0 6 0;
#X connect 8 0 18 0;
#X connect 9 0 11 1;
#X connect 10 0 9 0;
#X connect 11 0 19 0;
#X connect 12 0 2 0;
#X connect 12 0 29 0;
#X connect 13 0 5 0;
#X connect 13 0 29 0;
#X connect 14 0 7 0;
#X connect 14 0 29 0;
#X connect 15 0 10 0;
#X connect 15 0 29 0;
#X connect 20 0 12 0;
#X connect 20 0 30 0;
#X connect 21 0 13 0;
#X connect 21 0 31 0;
#X connect 22 0 14 0;
#X connect 22 0 32 0;
#X connect 23 0 15 0;
#X connect 23 0 33 0;
#X connect 24 0 2 1;
#X connect 25 0 5 1;
#X connect 26 0 7 1;
#X connect 27 0 10 1;
#X connect 28 0 0 0;
#X connect 28 0 3 0;
#X connect 28 0 8 0;
#X connect 28 0 11 0;
#X connect 34 0 1 1;
#X connect 34 0 4 1;
#X connect 34 0 6 1;
#X connect 34 0 9 1;
#X connect 35 0 34 0;
#X restore 15 100 pd combfilters-left1;
#N canvas 27 56 358 650 diffusor-left 0;
#X obj 51 107 *~ 0.5;
#X obj 36 132 +~;
#X obj 66 132 -~;
#X obj 36 26 inlet~;
#X obj 81 238 *~ 0.5;
#X obj 66 263 +~;
#X obj 96 263 -~;
#X obj 111 368 *~ 0.5;
#X obj 96 393 +~;
#X obj 126 393 -~;
#X obj 141 498 *~ 0.5;
#X obj 126 523 +~;
#X obj 156 523 -~;
#X obj 156 605 outlet~;
#X text 95 28 freeverb's diffusor;
#X obj 156 576 hip~ 5;
#X floatatom 214 70 5 0 0 0 - - -, f 5;
#X floatatom 246 203 5 0 0 0 - - -, f 5;
#X floatatom 280 334 5 0 0 0 - - -, f 5;
#X floatatom 304 464 5 0 0 0 - - -, f 5;
#X obj 51 53 r \$0-allpass1left;
#X obj 51 80 delread~ \$0-allpass1left;
#X obj 36 158 delwrite~ \$0-allpass1left 40;
#X obj 81 186 r \$0-allpass2left;
#X obj 81 211 delread~ \$0-allpass2left;
#X obj 66 290 delwrite~ \$0-allpass2left 40;
#X obj 111 317 r \$0-allpass3left;
#X obj 111 341 delread~ \$0-allpass3left;
#X obj 96 420 delwrite~ \$0-allpass3left 40;
#X obj 141 447 r \$0-allpass4left;
#X obj 141 471 delread~ \$0-allpass4left;
#X obj 126 550 delwrite~ \$0-allpass4left 40;
#X connect 0 0 1 1;
#X connect 1 0 22 0;
#X connect 2 0 5 0;
#X connect 2 0 6 1;
#X connect 3 0 1 0;
#X connect 3 0 2 1;
#X connect 4 0 5 1;
#X connect 5 0 25 0;
#X connect 6 0 8 0;
#X connect 6 0 9 1;
#X connect 7 0 8 1;
#X connect 8 0 28 0;
#X connect 9 0 11 0;
#X connect 9 0 12 1;
#X connect 10 0 11 1;
#X connect 11 0 31 0;
#X connect 12 0 15 0;
#X connect 15 0 13 0;
#X connect 20 0 16 0;
#X connect 20 0 21 0;
#X connect 21 0 0 0;
#X connect 21 0 2 0;
#X connect 23 0 17 0;
#X connect 23 0 24 0;
#X connect 24 0 4 0;
#X connect 24 0 6 0;
#X connect 26 0 18 0;
#X connect 26 0 27 0;
#X connect 27 0 7 0;
#X connect 27 0 9 0;
#X connect 29 0 19 0;
#X connect 29 0 30 0;
#X connect 30 0 10 0;
#X connect 30 0 12 0;
#X restore 15 168 pd diffusor-left;
#N canvas 312 366 778 367 combfilters-left2 0;
#X obj 46 244 +~;
#X obj 61 219 *~ 0.3;
#X obj 61 194 lop~ 1000;
#X obj 231 244 +~;
#X obj 246 219 *~ 0.3;
#X obj 246 194 lop~ 1000;
#X obj 429 218 *~ 0.3;
#X obj 429 193 lop~ 1000;
#X obj 414 241 +~;
#X obj 610 218 *~ 0.3;
#X obj 610 193 lop~ 1000;
#X obj 595 241 +~;
#X obj 112 170 r \$0-frequency;
#X obj 297 170 r \$0-frequency;
#X obj 480 167 r \$0-frequency;
#X obj 661 167 r \$0-frequency;
#X obj 46 28 inlet~;
#X obj 338 326 outlet~;
#X obj 61 90 r \$0-comb5left;
#X obj 61 141 delread~ \$0-comb5left;
#X obj 46 268 delwrite~ \$0-comb5left 100;
#X obj 246 90 r \$0-comb6left;
#X obj 246 142 delread~ \$0-comb6left;
#X obj 231 268 delwrite~ \$0-comb6left 100;
#X obj 429 88 r \$0-comb7left;
#X obj 429 141 delread~ \$0-comb7left;
#X obj 414 267 delwrite~ \$0-comb7left 100;
#X obj 610 89 r \$0-comb8left;
#X obj 610 141 delread~ \$0-comb8left;
#X obj 595 267 delwrite~ \$0-comb8left 100;
#X floatatom 70 116 5 0 0 0 - - -, f 5;
#X floatatom 261 118 5 0 0 0 - - -, f 5;
#X floatatom 440 117 5 0 0 0 - - -, f 5;
#X floatatom 620 116 5 0 0 0 - - -, f 5;
#X obj 279 58 clip 0 0.99;
#X obj 279 28 r \$0-room;
#X connect 0 0 20 0;
#X connect 1 0 0 1;
#X connect 2 0 1 0;
#X connect 3 0 23 0;
#X connect 4 0 3 1;
#X connect 5 0 4 0;
#X connect 6 0 8 1;
#X connect 7 0 6 0;
#X connect 8 0 26 0;
#X connect 9 0 11 1;
#X connect 10 0 9 0;
#X connect 11 0 29 0;
#X connect 12 0 2 1;
#X connect 13 0 5 1;
#X connect 14 0 7 1;
#X connect 15 0 10 1;
#X connect 16 0 0 0;
#X connect 16 0 3 0;
#X connect 16 0 8 0;
#X connect 16 0 11 0;
#X connect 18 0 19 0;
#X connect 18 0 30 0;
#X connect 19 0 2 0;
#X connect 19 0 17 0;
#X connect 21 0 22 0;
#X connect 21 0 31 0;
#X connect 22 0 5 0;
#X connect 22 0 17 0;
#X connect 24 0 25 0;
#X connect 24 0 32 0;
#X connect 25 0 7 0;
#X connect 25 0 17 0;
#X connect 27 0 28 0;
#X connect 27 0 33 0;
#X connect 28 0 10 0;
#X connect 28 0 17 0;
#X connect 34 0 1 1;
#X connect 34 0 4 1;
#X connect 34 0 6 1;
#X connect 34 0 9 1;
#X connect 35 0 34 0;
#X restore 36 134 pd combfilters-left2;
#N canvas 261 41 778 367 combfilters-right1 0;
#X obj 46 244 +~;
#X obj 61 219 *~ 0.3;
#X obj 61 194 lop~ 1000;
#X obj 231 244 +~;
#X obj 246 219 *~ 0.3;
#X obj 246 194 lop~ 1000;
#X obj 429 218 *~ 0.3;
#X obj 429 193 lop~ 1000;
#X obj 414 241 +~;
#X obj 610 218 *~ 0.3;
#X obj 610 193 lop~ 1000;
#X obj 595 241 +~;
#X obj 112 170 r \$0-frequency;
#X obj 297 170 r \$0-frequency;
#X obj 480 167 r \$0-frequency;
#X obj 661 167 r \$0-frequency;
#X obj 46 28 inlet~;
#X obj 338 326 outlet~;
#X floatatom 70 119 5 0 0 0 - - -, f 5;
#X floatatom 255 121 5 0 0 0 - - -, f 5;
#X floatatom 439 119 5 0 0 0 - - -, f 5;
#X floatatom 622 121 5 0 0 0 - - -, f 5;
#X obj 61 141 delread~ \$0-comb1right;
#X obj 246 142 delread~ \$0-comb2right;
#X obj 429 141 delread~ \$0-comb3right;
#X obj 610 141 delread~ \$0-comb4right;
#X obj 61 97 r \$0-comb1right;
#X obj 246 97 r \$0-comb2right;
#X obj 429 95 r \$0-comb3right;
#X obj 610 97 r \$0-comb4right;
#X obj 46 268 delwrite~ \$0-comb1right 100;
#X obj 231 268 delwrite~ \$0-comb2right 100;
#X obj 414 267 delwrite~ \$0-comb3right 100;
#X obj 595 267 delwrite~ \$0-comb4right 100;
#X obj 279 58 clip 0 0.99;
#X obj 279 28 r \$0-room;
#X connect 0 0 30 0;
#X connect 1 0 0 1;
#X connect 2 0 1 0;
#X connect 3 0 31 0;
#X connect 4 0 3 1;
#X connect 5 0 4 0;
#X connect 6 0 8 1;
#X connect 7 0 6 0;
#X connect 8 0 32 0;
#X connect 9 0 11 1;
#X connect 10 0 9 0;
#X connect 11 0 33 0;
#X connect 12 0 2 1;
#X connect 13 0 5 1;
#X connect 14 0 7 1;
#X connect 15 0 10 1;
#X connect 16 0 0 0;
#X connect 16 0 3 0;
#X connect 16 0 8 0;
#X connect 16 0 11 0;
#X connect 22 0 2 0;
#X connect 22 0 17 0;
#X connect 23 0 5 0;
#X connect 23 0 17 0;
#X connect 24 0 7 0;
#X connect 24 0 17 0;
#X connect 25 0 10 0;
#X connect 25 0 17 0;
#X connect 26 0 18 0;
#X connect 26 0 22 0;
#X connect 27 0 19 0;
#X connect 27 0 23 0;
#X connect 28 0 20 0;
#X connect 28 0 24 0;
#X connect 29 0 21 0;
#X connect 29 0 25 0;
#X connect 34 0 1 1;
#X connect 34 0 4 1;
#X connect 34 0 6 1;
#X connect 34 0 9 1;
#X connect 35 0 34 0;
#X restore 208 99 pd combfilters-right1;
#N canvas 312 366 778 367 combfilters-right2 0;
#X obj 46 244 +~;
#X obj 61 219 *~ 0.3;
#X obj 61 194 lop~ 1000;
#X obj 231 244 +~;
#X obj 246 219 *~ 0.3;
#X obj 246 194 lop~ 1000;
#X obj 429 218 *~ 0.3;
#X obj 429 193 lop~ 1000;
#X obj 414 241 +~;
#X obj 610 218 *~ 0.3;
#X obj 610 193 lop~ 1000;
#X obj 595 241 +~;
#X obj 112 170 r \$0-frequency;
#X obj 297 170 r \$0-frequency;
#X obj 480 167 r \$0-frequency;
#X obj 661 167 r \$0-frequency;
#X obj 46 28 inlet~;
#X obj 338 326 outlet~;
#X floatatom 70 116 5 0 0 0 - - -, f 5;
#X floatatom 261 118 5 0 0 0 - - -, f 5;
#X floatatom 440 117 5 0 0 0 - - -, f 5;
#X floatatom 620 116 5 0 0 0 - - -, f 5;
#X obj 279 58 clip 0 0.99;
#X obj 61 90 r \$0-comb5right;
#X obj 246 90 r \$0-comb6right;
#X obj 429 88 r \$0-comb7right;
#X obj 610 89 r \$0-comb8right;
#X obj 61 141 delread~ \$0-comb5right;
#X obj 246 142 delread~ \$0-comb6right;
#X obj 429 141 delread~ \$0-comb7right;
#X obj 610 141 delread~ \$0-comb8right;
#X obj 46 268 delwrite~ \$0-comb5right 100;
#X obj 231 268 delwrite~ \$0-comb6right 100;
#X obj 414 267 delwrite~ \$0-comb7right 100;
#X obj 595 267 delwrite~ \$0-comb8right 100;
#X obj 279 28 r \$0-room;
#X connect 0 0 31 0;
#X connect 1 0 0 1;
#X connect 2 0 1 0;
#X connect 3 0 32 0;
#X connect 4 0 3 1;
#X connect 5 0 4 0;
#X connect 6 0 8 1;
#X connect 7 0 6 0;
#X connect 8 0 33 0;
#X connect 9 0 11 1;
#X connect 10 0 9 0;
#X connect 11 0 34 0;
#X connect 12 0 2 1;
#X connect 13 0 5 1;
#X connect 14 0 7 1;
#X connect 15 0 10 1;
#X connect 16 0 0 0;
#X connect 16 0 3 0;
#X connect 16 0 8 0;
#X connect 16 0 11 0;
#X connect 22 0 1 1;
#X connect 22 0 4 1;
#X connect 22 0 6 1;
#X connect 22 0 9 1;
#X connect 23 0 18 0;
#X connect 23 0 27 0;
#X connect 24 0 19 0;
#X connect 24 0 28 0;
#X connect 25 0 20 0;
#X connect 25 0 29 0;
#X connect 26 0 21 0;
#X connect 26 0 30 0;
#X connect 27 0 2 0;
#X connect 27 0 17 0;
#X connect 28 0 5 0;
#X connect 28 0 17 0;
#X connect 29 0 7 0;
#X connect 29 0 17 0;
#X connect 30 0 10 0;
#X connect 30 0 17 0;
#X connect 35 0 22 0;
#X restore 225 133 pd combfilters-right2;
#N canvas 27 56 358 650 diffusor-right 0;
#X obj 51 107 *~ 0.5;
#X obj 36 132 +~;
#X obj 66 132 -~;
#X obj 36 26 inlet~;
#X obj 81 238 *~ 0.5;
#X obj 66 263 +~;
#X obj 96 263 -~;
#X obj 111 368 *~ 0.5;
#X obj 96 393 +~;
#X obj 126 393 -~;
#X obj 141 498 *~ 0.5;
#X obj 126 523 +~;
#X obj 156 523 -~;
#X obj 156 605 outlet~;
#X text 95 28 freeverb's diffusor;
#X obj 156 576 hip~ 5;
#X floatatom 214 70 5 0 0 0 - - -, f 5;
#X floatatom 244 203 5 0 0 0 - - -, f 5;
#X floatatom 280 334 5 0 0 0 - - -, f 5;
#X floatatom 304 464 5 0 0 0 - - -, f 5;
#X obj 51 53 r \$0-allpass1right;
#X obj 51 80 delread~ \$0-allpass1right;
#X obj 36 158 delwrite~ \$0-allpass1right 40;
#X obj 81 186 r \$0-allpass2right;
#X obj 81 211 delread~ \$0-allpass2right;
#X obj 66 290 delwrite~ \$0-allpass2right 40;
#X obj 111 317 r \$0-allpass3right;
#X obj 111 341 delread~ \$0-allpass3right;
#X obj 96 420 delwrite~ \$0-allpass3right 40;
#X obj 141 447 r \$0-allpass4right;
#X obj 141 471 delread~ \$0-allpass4right;
#X obj 126 550 delwrite~ \$0-allpass4right 40;
#X connect 0 0 1 1;
#X connect 1 0 22 0;
#X connect 2 0 5 0;
#X connect 2 0 6 1;
#X connect 3 0 1 0;
#X connect 3 0 2 1;
#X connect 4 0 5 1;
#X connect 5 0 25 0;
#X connect 6 0 8 0;
#X connect 6 0 9 1;
#X connect 7 0 8 1;
#X connect 8 0 28 0;
#X connect 9 0 11 0;
#X connect 9 0 12 1;
#X connect 10 0 11 1;
#X connect 11 0 31 0;
#X connect 12 0 15 0;
#X connect 15 0 13 0;
#X connect 20 0 16 0;
#X connect 20 0 21 0;
#X connect 21 0 0 0;
#X connect 21 0 2 0;
#X connect 23 0 17 0;
#X connect 23 0 24 0;
#X connect 24 0 4 0;
#X connect 24 0 6 0;
#X connect 26 0 18 0;
#X connect 26 0 27 0;
#X connect 27 0 7 0;
#X connect 27 0 9 0;
#X connect 29 0 19 0;
#X connect 29 0 30 0;
#X connect 30 0 10 0;
#X connect 30 0 12 0;
#X restore 208 169 pd diffusor-right;
#X obj 208 61 *~ 0.015;
#X obj 15 226 *~ 1;
#X obj 208 228 *~ 1;
#X obj 94 228 *~ 1;
#X obj 169 228 *~ 1;
#X obj 115 202 r \$0-dry;
#X obj 229 203 r \$0-wet;
#X obj 36 201 r \$0-wet;
#X obj 94 14 inlet~;
#X obj 208 14 inlet~;
#X obj 15 268 outlet~;
#X obj 169 269 outlet~;
#X obj 312 14 inlet;
#X obj 374 14 inlet;
#X obj 462 14 inlet;
#X obj 544 16 inlet;
#N canvas 0 22 207 207 room 0;
#X obj 32 35 inlet;
#X obj 32 63 * 0.28;
#X obj 32 94 + 0.7;
#X obj 32 160 outlet;
#X text 80 65 scaleroom;
#X text 76 94 offsetroom;
#X obj 47 126 s \$0-room;
#X connect 0 0 1 0;
#X connect 1 0 2 0;
#X connect 2 0 3 0;
#X connect 2 0 6 0;
#X restore 312 45 pd room;
#N canvas 684 169 244 376 frequency 0;
#X obj 60 222 samplerate~;
#X obj 33 8 inlet;
#X obj 33 194 t f b;
#X obj 33 249 *;
#X obj 53 303 s \$0-frequency;
#X obj 33 327 outlet;
#X obj 33 64 * 0.4;
#X text 76 66 scaledamp;
#X obj 33 38 clip 0 2;
#X obj 33 90 t b f;
#X obj 33 141 -;
#X msg 33 116 1;
#X obj 33 168 abs;
#X obj 33 275 * 0.5;
#X text 153 303 for [lop~];
#X connect 0 0 3 1;
#X connect 1 0 8 0;
#X connect 2 0 3 0;
#X connect 2 1 0 0;
#X connect 3 0 13 0;
#X connect 6 0 9 0;
#X connect 8 0 6 0;
#X connect 9 0 11 0;
#X connect 9 1 10 1;
#X connect 10 0 12 0;
#X connect 11 0 10 0;
#X connect 12 0 2 0;
#X connect 13 0 5 0;
#X connect 13 0 4 0;
#X restore 374 45 pd frequency;
#N canvas 0 22 170 187 scalewet 0;
#X obj 22 42 inlet;
#X obj 22 143 outlet;
#X obj 22 73 * 3;
#X text 49 74 scalewet;
#X obj 40 112 s \$0-wet;
#X connect 0 0 2 0;
#X connect 2 0 1 0;
#X connect 2 0 4 0;
#X restore 544 45 pd scalewet;
#N canvas 0 22 220 198 scaledry 0;
#X obj 32 74 * 2;
#X obj 32 40 inlet;
#X obj 32 141 outlet;
#X text 58 75 scaledry;
#X obj 41 105 s \$0-dry;
#X connect 0 0 2 0;
#X connect 0 0 4 0;
#X connect 1 0 0 0;
#X restore 462 45 pd scaledry;
#X floatatom 312 70 5 0 0 0 - - -, f 5;
#X floatatom 374 70 10 0 0 0 - - -, f 10;
#X floatatom 462 69 5 0 0 0 - - -, f 5;
#X floatatom 544 69 5 0 0 0 - - -, f 5;
#N canvas 405 27 635 684 tuning 0;
#X msg 332 81 1139 \, 1211 \, 1300 \, 1379 \, 1445 \, 1514 \, 1580
\, 1640;
#X text 72 57 combfilter tunings left;
#X text 377 56 combfilter tunings right;
#X text 71 360 allpass tunings left;
#X text 383 355 allpass tunings right;
#N canvas 243 170 195 233 sampstoms 0;
#X obj 27 21 inlet;
#X obj 54 86 samplerate~;
#X obj 27 111 /;
#X obj 27 57 t f b;
#X obj 27 136 * 1000;
#X obj 27 162 outlet;
#X connect 0 0 3 0;
#X connect 1 0 2 1;
#X connect 2 0 4 0;
#X connect 3 0 2 0;
#X connect 3 1 1 0;
#X connect 4 0 5 0;
#X restore 30 107 pd sampstoms;
#X msg 30 82 1116 \, 1188 \, 1277 \, 1356 \, 1422 \, 1491 \, 1557 \,
1617;
#X obj 57 188 +;
#X msg 57 159 1;
#X obj 30 135 t f b;
#X obj 87 188 f;
#X obj 30 56 t b b;
#X msg 87 159 0;
#X obj 57 212 pack f \$0;
#X msg 57 238 \$2-comb\$1left;
#X obj 30 282 s;
#X obj 57 265 symbol;
#N canvas 0 22 195 233 sampstoms 0;
#X obj 27 21 inlet;
#X obj 54 86 samplerate~;
#X obj 27 111 /;
#X obj 27 57 t f b;
#X obj 27 136 * 1000;
#X obj 27 162 outlet;
#X connect 0 0 3 0;
#X connect 1 0 2 1;
#X connect 2 0 4 0;
#X connect 3 0 2 0;
#X connect 3 1 1 0;
#X connect 4 0 5 0;
#X restore 332 107 pd sampstoms;
#X obj 359 188 +;
#X msg 359 159 1;
#X obj 332 135 t f b;
#X obj 389 188 f;
#X msg 389 159 0;
#X obj 359 212 pack f \$0;
#X obj 332 282 s;
#X obj 359 265 symbol;
#X obj 332 56 t b b;
#X msg 359 238 \$2-comb\$1right;
#X obj 30 360 t b b;
#N canvas 0 22 195 233 sampstoms 0;
#X obj 27 21 inlet;
#X obj 54 86 samplerate~;
#X obj 27 111 /;
#X obj 27 57 t f b;
#X obj 27 136 * 1000;
#X obj 27 162 outlet;
#X connect 0 0 3 0;
#X connect 1 0 2 1;
#X connect 2 0 4 0;
#X connect 3 0 2 0;
#X connect 3 1 1 0;
#X connect 4 0 5 0;
#X restore 30 411 pd sampstoms;
#X obj 57 492 +;
#X msg 57 463 1;
#X obj 30 439 t f b;
#X obj 87 492 f;
#X msg 87 463 0;
#X obj 57 516 pack f \$0;
#X obj 30 586 s;
#X obj 57 569 symbol;
#X obj 334 356 t b b;
#N canvas 0 22 195 233 sampstoms 0;
#X obj 27 21 inlet;
#X obj 54 86 samplerate~;
#X obj 27 111 /;
#X obj 27 57 t f b;
#X obj 27 136 * 1000;
#X obj 27 162 outlet;
#X connect 0 0 3 0;
#X connect 1 0 2 1;
#X connect 2 0 4 0;
#X connect 3 0 2 0;
#X connect 3 1 1 0;
#X connect 4 0 5 0;
#X restore 334 407 pd sampstoms;
#X obj 361 488 +;
#X msg 361 459 1;
#X obj 334 435 t f b;
#X obj 391 488 f;
#X msg 391 459 0;
#X obj 361 512 pack f \$0;
#X obj 334 582 s;
#X obj 361 565 symbol;
#X obj 30 22 loadbang;
#X obj 332 27 loadbang;
#X obj 30 334 loadbang;
#X obj 334 331 loadbang;
#X obj 268 41 bng 15 250 50 0 empty empty empty 17 7 0 10 -262144 -1
-1;
#X msg 30 386 225 \, 556 \, 441 \, 341;
#X msg 334 380 248 \, 579 \, 464 \, 364;
#X msg 57 542 \$2-allpass\$1left;
#X msg 361 539 \$2-allpass\$1right;
#X text 27 624 Original Freeverb delay line lengths are converted to
milliseconds \, based on samplerate.;
#X connect 0 0 17 0;
#X connect 5 0 9 0;
#X connect 6 0 5 0;
#X connect 7 0 10 0;
#X connect 7 0 13 0;
#X connect 8 0 7 0;
#X connect 9 0 15 0;
#X connect 9 1 8 0;
#X connect 10 0 7 1;
#X connect 11 0 6 0;
#X connect 11 1 12 0;
#X connect 12 0 10 0;
#X connect 13 0 14 0;
#X connect 14 0 16 0;
#X connect 16 0 15 1;
#X connect 17 0 20 0;
#X connect 18 0 21 0;
#X connect 18 0 23 0;
#X connect 19 0 18 0;
#X connect 20 0 24 0;
#X connect 20 1 19 0;
#X connect 21 0 18 1;
#X connect 22 0 21 0;
#X connect 23 0 27 0;
#X connect 25 0 24 1;
#X connect 26 0 0 0;
#X connect 26 1 22 0;
#X connect 27 0 25 0;
#X connect 28 0 53 0;
#X connect 28 1 34 0;
#X connect 29 0 32 0;
#X connect 30 0 33 0;
#X connect 30 0 35 0;
#X connect 31 0 30 0;
#X connect 32 0 36 0;
#X connect 32 1 31 0;
#X connect 33 0 30 1;
#X connect 34 0 33 0;
#X connect 35 0 55 0;
#X connect 37 0 36 1;
#X connect 38 0 54 0;
#X connect 38 1 44 0;
#X connect 39 0 42 0;
#X connect 40 0 43 0;
#X connect 40 0 45 0;
#X connect 41 0 40 0;
#X connect 42 0 46 0;
#X connect 42 1 41 0;
#X connect 43 0 40 1;
#X connect 44 0 43 0;
#X connect 45 0 56 0;
#X connect 47 0 46 1;
#X connect 48 0 11 0;
#X connect 49 0 26 0;
#X connect 50 0 28 0;
#X connect 51 0 38 0;
#X connect 52 0 11 0;
#X connect 52 0 28 0;
#X connect 52 0 26 0;
#X connect 52 0 38 0;
#X connect 53 0 29 0;
#X connect 54 0 39 0;
#X connect 55 0 37 0;
#X connect 56 0 47 0;
#X restore 410 141 pd tuning;
#X connect 0 0 1 0;
#X connect 1 0 7 0;
#X connect 2 0 1 0;
#X connect 3 0 5 0;
#X connect 4 0 5 0;
#X connect 5 0 8 0;
#X connect 6 0 3 0;
#X connect 6 0 0 0;
#X connect 6 0 4 0;
#X connect 6 0 2 0;
#X connect 7 0 16 0;
#X connect 8 0 17 0;
#X connect 9 0 16 0;
#X connect 10 0 17 0;
#X connect 11 0 10 1;
#X connect 11 0 9 1;
#X connect 12 0 8 1;
#X connect 13 0 7 1;
#X connect 14 0 6 0;
#X connect 14 0 9 0;
#X connect 15 0 6 0;
#X connect 15 0 10 0;
#X connect 18 0 22 0;
#X connect 19 0 23 0;
#X connect 20 0 25 0;
#X connect 21 0 24 0;
#X connect 22 0 26 0;
#X connect 23 0 27 0;
#X connect 24 0 29 0;
#X connect 25 0 28 0;
#X restore 68 320 pd vfreeverb~;
#X msg 270 103 1.858;
#X msg 294 148 0.866;
#X obj 391 8 loadbang;
#X msg 248 59 0.921;
#X obj 68 164 inlet~;
#X obj 68 355 outlet~;
#X msg 319 196 1;
#X connect 0 0 2 0;
#X connect 0 0 8 2;
#X connect 1 0 3 0;
#X connect 1 0 8 3;
#X connect 4 0 6 0;
#X connect 4 0 8 5;
#X connect 5 0 7 0;
#X connect 5 0 8 4;
#X connect 8 0 14 0;
#X connect 8 1 14 0;
#X connect 9 0 1 0;
#X connect 10 0 5 0;
#X connect 11 0 9 0;
#X connect 11 0 10 0;
#X connect 11 0 12 0;
#X connect 11 0 15 0;
#X connect 12 0 0 0;
#X connect 13 0 8 0;
#X connect 13 0 8 1;
#X connect 15 0 4 0;
#X restore 116 505 pd reverb-stuff;
#X obj 148 237 route /tilts /accel;
#N canvas 364 271 273 320 shaking-amount 0;
#X obj 22 19 inlet;
#X obj 22 280 outlet;
#X obj 22 54 expr sqrt($f1*$f1 + $f2*$f2 + $f3*$f3);
#X obj 22 208 spigot;
#X obj 22 147 t f f;
#X obj 76 221 sel 1;
#X text 75 17 3d accel vector in;
#N canvas 750 130 450 300 runningmean 0;
#X obj 36 83 +;
#X obj 36 47 t f f;
#X obj 36 109 * 0.5;
#X obj 110 83 +;
#X obj 110 47 t f f;
#X obj 110 109 * 0.5;
#X obj 170 83 +;
#X obj 170 47 t f f;
#X obj 170 109 * 0.5;
#X obj 244 83 +;
#X obj 244 47 t f f;
#X obj 244 109 * 0.5;
#X obj 301 83 +;
#X obj 301 47 t f f;
#X obj 301 109 * 0.5;
#X obj 375 83 +;
#X obj 375 47 t f f;
#X obj 375 109 * 0.5;
#X obj 35 14 inlet;
#X obj 375 149 outlet;
#X text 57 212 cascading running 2-order running means.. maybe there's
a better way to do this?;
#X connect 0 0 2 0;
#X connect 1 0 0 1;
#X connect 1 1 0 0;
#X connect 2 0 4 0;
#X connect 3 0 5 0;
#X connect 4 0 3 1;
#X connect 4 1 3 0;
#X connect 5 0 7 0;
#X connect 6 0 8 0;
#X connect 7 0 6 1;
#X connect 7 1 6 0;
#X connect 8 0 10 0;
#X connect 9 0 11 0;
#X connect 10 0 9 1;
#X connect 10 1 9 0;
#X connect 11 0 13 0;
#X connect 12 0 14 0;
#X connect 13 0 12 1;
#X connect 13 1 12 0;
#X connect 14 0 16 0;
#X connect 15 0 17 0;
#X connect 16 0 15 1;
#X connect 16 1 15 0;
#X connect 17 0 19 0;
#X connect 18 0 1 0;
#X restore 22 87 pd runningmean;
#X obj 22 236 / 7;
#X obj 22 172 - 2;
#X obj 76 179 > 2;
#X obj 22 121 clip 0 9;
#X connect 0 0 2 0;
#X connect 2 0 7 0;
#X connect 3 0 8 0;
#X connect 4 0 9 0;
#X connect 4 1 10 0;
#X connect 5 1 1 0;
#X connect 7 0 11 0;
#X connect 8 0 1 0;
#X connect 9 0 3 0;
#X connect 10 0 3 1;
#X connect 10 0 5 0;
#X connect 11 0 4 0;
#X restore 203 282 pd shaking-amount;
#X obj 116 475 *~, f 15;
#X obj 203 367 line~;
#X msg 203 342 \$1 300;
#X text 368 274 todo:;
#N canvas 274 102 1090 606 triggergrain 0;
#X obj 625 350 tgl 15 0 empty empty empty 17 7 0 10 -262144 -1 -1 1
1;
#X obj 625 372 metro 800;
#X obj 676 135 receive fromXY;
#X obj 676 186 unpack, f 10;
#X obj 676 220 * -1;
#X obj 676 245 + 1.1;
#X obj 676 267 * 700;
#N canvas 410 23 450 300 probThru 0;
#X obj 193 38 inlet;
#X obj 73 38 inlet;
#X obj 73 208 spigot, f 16;
#X obj 100 114 random 100;
#X obj 193 147 * 100;
#X obj 166 177 < 100;
#X obj 73 74 t b b;
#X obj 73 247 outlet;
#X text 38 10 Let bang through with some probability;
#X text 236 38 prob: 0-1;
#X text 36 36 bang, f 16;
#X connect 0 0 4 0;
#X connect 1 0 6 0;
#X connect 2 0 7 0;
#X connect 3 0 5 0;
#X connect 4 0 5 1;
#X connect 5 0 2 1;
#X connect 6 0 2 0;
#X connect 6 1 3 0;
#X restore 625 397 pd probThru;
#X obj 387 481 outlet;
#X text 753 184 probability;
#X text 589 189 time interval;
#X obj 387 185 receive grainend;
#X obj 387 276 spigot;
#X obj 625 325 == 0;
#X obj 510 248 receive playthru;
#X obj 625 297 pipe 10;
#X text 379 77 b) playthru 0: user-controlled time interval and probability
;
#X text 378 46 a) playthru 1: play from beginning to end of selection
\, then retrigger;
#X text 378 30 2 trigger modes:;
#X text 654 421 playthru 0 \, grains triggered by metro;
#X text 22 269 playthru 0 \, grains triggered when previous grain ends
;
#X obj 810 338 t f b;
#X msg 837 362 0.95;
#X obj 884 248 r msTempo;
#X obj 884 273 * 0.25;
#X obj 810 312 f;
#X obj 850 162 receive DanceMode;
#X obj 804 217 spigot;
#X obj 888 202 sel 1;
#X connect 0 0 1 0;
#X connect 1 0 7 0;
#X connect 2 0 3 0;
#X connect 3 0 4 0;
#X connect 3 1 7 1;
#X connect 4 0 5 0;
#X connect 5 0 6 0;
#X connect 6 0 1 1;
#X connect 7 0 8 0;
#X connect 11 0 12 0;
#X connect 12 0 8 0;
#X connect 13 0 0 0;
#X connect 14 0 12 1;
#X connect 14 0 15 0;
#X connect 15 0 13 0;
#X connect 21 0 1 1;
#X connect 21 1 22 0;
#X connect 22 0 7 1;
#X connect 23 0 24 0;
#X connect 24 0 25 1;
#X connect 24 0 27 0;
#X connect 25 0 21 0;
#X connect 26 0 27 1;
#X connect 26 0 28 0;
#X connect 27 0 25 0;
#X connect 28 0 25 0;
#X restore 16 217 pd triggergrain;
#N canvas 17 28 1280 661 sendtoGUI 0;
#X msg 411 164 list /audiobuffer refresh;
#X obj 411 138 receive RefreshBufferGUI;
#X obj 595 127 * 0.001;
#X obj 418 575 send toGUI;
#X obj 595 153 - 1;
#X msg 595 177 list /BufferSize set \$1;
#X obj 595 104 receive BufferLength;
#X obj 758 123 receive playthru;
#X msg 758 181 list /playthru set \$1;
#X msg 981 251 list /GrainOrPlay Play mode;
#X msg 922 180 list /GrainOrPlay Grain mode;
#X obj 917 151 sel 0 1;
#X msg 250 209 list /RecordButton set 0;
#X obj 347 108 receive RecordOff;
#X msg 823 440 list /DancersP image dancers2.png;
#X obj 846 329 receive DanceMode;
#X obj 846 352 sel 1 0;
#X msg 846 401 list /DancersP image dancers.png;
#X msg 922 575 \; DanceMode 0;
#X obj 922 552 t b;
#X obj 922 525 receive fromXY;
#X msg 881 378 list /DancersB set 0;
#X obj 51 21 loadbang;
#X msg 51 47 list /LoadSample Piano SynthMelody Drums Humanistiske
Bass;
#X msg 421 240 list /durationrange refresh;
#X msg 425 287 list /pitchrange refresh;
#X obj 438 195 loadbang;
#X obj 652 563 sel 1 0;
#X obj 683 504 receive delayToggle;
#X msg 687 589 list /delayToggle set 0;
#X msg 652 612 list /delayPanel image delaybtn0.png;
#X msg 629 651 list /delayPanel image delaybtn1.png;
#X obj 123 510 receive userVolume;
#X msg 123 562 list /userVolume set \$1;
#X obj 123 536 * 0.25;
#X obj 139 398 receive bpmTempo;
#X msg 148 433 list /BPMlabel \$1;
#X obj 107 307 receive octave;
#X msg 110 338 list /OCTAVElabel \$1;
#X msg 10 118 list /Octaveslider 2;
#X obj 9 453 receive semi;
#X msg 12 484 list /SEMIlabel \$1;
#X msg 160 113 list /BPMslider 50;
#X connect 0 0 3 0;
#X connect 1 0 0 0;
#X connect 2 0 4 0;
#X connect 4 0 5 0;
#X connect 5 0 3 0;
#X connect 6 0 2 0;
#X connect 7 0 8 0;
#X connect 7 0 11 0;
#X connect 8 0 3 0;
#X connect 9 0 3 0;
#X connect 10 0 3 0;
#X connect 11 0 10 0;
#X connect 11 1 9 0;
#X connect 12 0 3 0;
#X connect 13 0 12 0;
#X connect 13 0 0 0;
#X connect 14 0 3 0;
#X connect 15 0 16 0;
#X connect 16 0 14 0;
#X connect 16 1 17 0;
#X connect 16 1 21 0;
#X connect 17 0 3 0;
#X connect 19 0 18 0;
#X connect 20 0 19 0;
#X connect 21 0 3 0;
#X connect 22 0 23 0;
#X connect 22 0 39 0;
#X connect 22 0 42 0;
#X connect 23 0 3 0;
#X connect 24 0 3 0;
#X connect 25 0 3 0;
#X connect 26 0 24 0;
#X connect 26 0 25 0;
#X connect 27 0 31 0;
#X connect 27 1 30 0;
#X connect 27 1 29 0;
#X connect 28 0 27 0;
#X connect 29 0 3 0;
#X connect 30 0 3 0;
#X connect 31 0 3 0;
#X connect 32 0 34 0;
#X connect 33 0 3 0;
#X connect 34 0 33 0;
#X connect 35 0 36 0;
#X connect 36 0 3 0;
#X connect 37 0 38 0;
#X connect 38 0 3 0;
#X connect 39 0 3 0;
#X connect 40 0 41 0;
#X connect 41 0 3 0;
#X connect 42 0 3 0;
#X restore 365 507 pd sendtoGUI;
#X obj 365 411 table /audiobuffer 88200;
#X obj 203 316 * 1;
#X obj 16 427 *~, f 9;
#N canvas 29 181 604 316 DanceMode 0;
#X obj 47 77 receive DanceMode;
#X msg 47 206 \; playthru 0;
#X obj 47 117 sel 1;
#X msg 128 207 \; DanceDuration 2 15;
#X msg 260 208 \; DanceRange bang;
#X connect 0 0 2 0;
#X connect 2 0 1 0;
#X connect 2 0 3 0;
#X connect 2 0 4 0;
#X restore 365 528 pd DanceMode;
#N canvas 0 23 1152 543 receivefromGUI 0;
#X obj 18 14 receive fromGUI;
#X obj 18 38 list trim;
#X obj 466 205 send fromXY;
#X msg 484 176 0 0;
#X obj 483 156 loadbang;
#X obj 317 204 send DanceMode;
#X obj 135 228 outlet;
#X obj 242 201 outlet;
#X obj 391 172 outlet;
#X obj 616 235 send delayToggle, f 17;
#N canvas 0 22 916 401 playthru 0;
#X obj 69 32 inlet;
#X obj 152 137 receive playthru;
#X obj 145 202 f;
#X obj 265 67 t b b b, f 15;
#X msg 409 113 0;
#X obj 232 169 spigot;
#X msg 265 104 1;
#X msg 308 102 \; playthru 0;
#X obj 69 116 sel 0 1;
#X obj 265 38 loadbang;
#X msg 145 227 \; playthru \$1;
#X msg 554 116 \; grainend bang;
#X obj 554 74 sel 1;
#X obj 554 95 del 10;
#X obj 554 34 inlet;
#X obj 615 72 send playthru;
#X connect 0 0 8 0;
#X connect 1 0 5 0;
#X connect 2 0 10 0;
#X connect 3 0 6 0;
#X connect 3 1 7 0;
#X connect 3 2 4 0;
#X connect 4 0 5 1;
#X connect 5 0 2 1;
#X connect 6 0 5 1;
#X connect 8 0 2 0;
#X connect 8 1 3 0;
#X connect 9 0 3 0;
#X connect 12 0 13 0;
#X connect 13 0 11 0;
#X connect 14 0 12 0;
#X connect 14 0 15 0;
#X restore 158 201 pd playthru;
#X obj 92 347 * 0.9;
#X obj 92 278 == 0;
#X obj 92 407 line~;
#X msg 92 384 \$1 2;
#X obj 140 285 loadbang;
#X msg 140 307 1;
#X obj 132 263 receive volume;
#X obj 92 436 throw~ volume, f 14;
#X obj 18 442 sel 1;
#X msg 18 466 \; RefreshBufferGUI bang, f 18;
#X obj 711 119 loadbang;
#X msg 711 141 0.25;
#X msg 691 194 \; userVolume \$1 \;;
#X obj 691 166 * 4;
#N canvas 575 343 450 300 NormButton 0;
#X obj 89 66 inlet;
#X obj 89 88 sel 0 1;
#X msg 108 122 \; /audiobuffer normalize \; RefreshBufferGUI bang \;
toGUI list /NormPanel image normalizebtn1.png;
#X msg 89 186 \; toGUI list /NormPanel image normalizebtn0.png;
#X connect 0 0 1 0;
#X connect 1 0 3 0;
#X connect 1 1 2 0;
#X restore 765 163 pd NormButton;
#N canvas 0 22 1078 530 PanicButton 0;
#X obj 154 72 inlet;
#X msg 154 301 \; ranges /audiobuffer range 0 \$1;
#X obj 154 276 f, f 6;
#X obj 169 249 * 44.1;
#X obj 169 227 receive BufferLength;
#X text 249 29 When clear button is pressed \, set grain mode with
no triggering and reduce volume to 0 \, also select entire audio buffer
;
#X obj 154 125 sel 1 0, f 51;
#X msg 431 226 \; volume 1 \; feedbackToggle 1 \; toGUI list /PanicPanel
image panicbtn0.png \;;
#X msg 41 345 \; playthru 0 \; fromXY 0 0 \; volume 0 \; feedbackToggle
0 \; toGUI list /PanicPanel image panicbtn1.png \;, f 39;
#X connect 0 0 6 0;
#X connect 2 0 1 0;
#X connect 3 0 2 0;
#X connect 4 0 3 0;
#X connect 6 0 8 0;
#X connect 6 0 2 0;
#X connect 6 1 7 0;
#X restore 541 266 pd PanicButton;
#X obj 1065 139 send ranges;
#N canvas 668 310 450 300 tempo 0;
#X obj 92 66 inlet;
#X obj 92 121 + 70;
#X obj 92 223 / 100;
#X obj 92 166 t b f;
#X msg 72 195 60000;
#X obj 92 252 s msTempo;
#X obj 157 66 loadbang;
#X msg 157 90 50;
#X msg 200 188 \; bpmTempo \$1;
#X connect 0 0 1 0;
#X connect 1 0 3 0;
#X connect 1 0 8 0;
#X connect 2 0 5 0;
#X connect 3 0 4 0;
#X connect 3 1 2 1;
#X connect 4 0 2 0;
#X connect 6 0 7 0;
#X connect 7 0 1 0;
#X restore 840 136 pd tempo;
#N canvas 796 376 450 300 Octave 0;
#X obj 92 66 inlet;
#X obj 92 252 s octave;
#X obj 92 97 - 2;
#X obj 150 154 loadbang;
#X msg 145 192 0;
#X connect 0 0 2 0;
#X connect 2 0 1 0;
#X connect 3 0 4 0;
#X connect 4 0 1 0;
#X restore 915 211 pd Octave;
#N canvas 144 429 450 300 Semi 0;
#X obj 92 66 inlet;
#X obj 150 154 loadbang;
#X msg 145 192 0;
#X obj 92 252 s semi;
#X connect 0 0 3 0;
#X connect 1 0 2 0;
#X connect 2 0 3 0;
#X restore 990 175 pd Semi;
#X obj 18 72 route /ResetButton /RecordButton /playthru /LoadSample
/DancersB /BufferSize /XYslider /PanicButton /delayToggle /userVolume
/NormButton /BPMslider /Octaveslider /Semislider, f 175;
#X connect 0 0 1 0;
#X connect 1 0 31 0;
#X connect 3 0 2 0;
#X connect 4 0 3 0;
#X connect 11 0 14 0;
#X connect 12 0 11 0;
#X connect 13 0 18 0;
#X connect 14 0 13 0;
#X connect 15 0 16 0;
#X connect 16 0 11 0;
#X connect 17 0 11 0;
#X connect 19 0 20 0;
#X connect 21 0 22 0;
#X connect 22 0 24 0;
#X connect 24 0 23 0;
#X connect 31 0 19 0;
#X connect 31 1 6 0;
#X connect 31 1 10 0;
#X connect 31 1 12 0;
#X connect 31 2 10 1;
#X connect 31 3 7 0;
#X connect 31 4 5 0;
#X connect 31 5 8 0;
#X connect 31 6 2 0;
#X connect 31 7 26 0;
#X connect 31 8 9 0;
#X connect 31 9 24 0;
#X connect 31 10 25 0;
#X connect 31 11 28 0;
#X connect 31 12 29 0;
#X connect 31 13 30 0;
#X connect 31 14 27 0;
#X restore 24 19 pd receivefromGUI;
#X obj 67 400 catch~ volume;
#N canvas 400 153 806 502 SoundSample-and-BufferSize 0;
#X obj 177 76 inlet;
#X obj 177 226 soundfiler;
#X floatatom 177 276 5 0 0 0 - - -, f 5;
#X text 218 155 load sound file;
#X obj 177 169 symbol;
#X msg 177 192 read -resize \$1 /audiobuffer;
#X obj 177 316 / 44.1;
#X msg 26 300 \; RefreshBufferGUI bang;
#X msg 41 355 \; BufferLength \$1;
#X msg 177 100 \$1;
#X obj 489 76 inlet;
#X obj 489 160 + 1;
#X msg 489 223 \; /audiobuffer resize \$1;
#X obj 557 128 loadbang;
#X msg 557 154 2;
#X text 583 153 initialize 2 sec audiobuffer;
#X obj 489 186 * 44100;
#X text 68 408 buffer length (milliseconds);
#N canvas 0 22 644 287 select-sample 0;
#X msg 62 91 piano.wav;
#X msg 158 91 melodius.wav;
#X msg 255 91 beat.wav;
#X msg 351 91 humanistiske.wav;
#X obj 62 63 sel 0 1 2 3 4, f 81;
#X msg 461 91 bass.wav;
#X obj 62 192 outlet;
#X obj 62 27 inlet;
#X connect 0 0 6 0;
#X connect 1 0 6 0;
#X connect 2 0 6 0;
#X connect 3 0 6 0;
#X connect 4 0 0 0;
#X connect 4 1 1 0;
#X connect 4 2 2 0;
#X connect 4 3 3 0;
#X connect 4 4 5 0;
#X connect 5 0 6 0;
#X connect 7 0 4 0;
#X restore 177 132 pd select-sample;
#X text 177 21 Subpatch for loading a sound sample and resetting audio
buffer size;
#X connect 0 0 9 0;
#X connect 1 0 2 0;
#X connect 2 0 6 0;
#X connect 2 0 7 0;
#X connect 4 0 5 0;
#X connect 5 0 1 0;
#X connect 6 0 8 0;
#X connect 9 0 18 0;
#X connect 10 0 11 0;
#X connect 11 0 16 0;
#X connect 13 0 14 0;
#X connect 14 0 16 0;
#X connect 16 0 2 0;
#X connect 16 0 12 0;
#X connect 18 0 4 0;
#X restore 125 111 pd SoundSample-and-BufferSize;
#N canvas 172 90 795 489 recordAudio 0;
#X obj 128 26 inlet;
#X obj 301 424 tabwrite~ /audiobuffer;
#X msg 128 277 bang;
#X msg 600 294 stop;
#X obj 301 383 adc~;
#X msg 203 147 \; /audiobuffer const 0;
#X obj 447 262 t b b, f 26;
#X obj 447 292 send RefreshBufferGUI;
#X obj 128 82 sel 1 0, f 107;
#X text 132 100 press record button;
#X text 459 101 release record button;
#X text 467 244 stop recording and refresh GUI;
#X text 235 131 clear buffer;
#X text 26 277 start recording;
#X obj 128 122 t b b, f 13;
#N canvas 0 22 516 404 End-Record-at-Bufferlength 0;
#X obj 56 276 delay 3100;
#X msg 95 123 stop;
#X msg 56 321 \; RecordOff bang;
#X obj 113 242 + 100;
#X obj 113 215 receive BufferLength;
#X obj 56 51 inlet;
#X obj 56 87 t b b, f 7;
#X text 31 28 On record start \, initialize delay to end when buffer
is full;
#X text 136 126 Stop the current delay if new record on message is
received;
#X connect 0 0 2 0;
#X connect 1 0 0 0;
#X connect 3 0 0 1;
#X connect 4 0 3 0;
#X connect 5 0 6 0;
#X connect 6 0 0 0;
#X connect 6 1 1 0;
#X restore 168 195 pd End-Record-at-Bufferlength;
#X obj 471 222 receive RecordOff;
#X connect 0 0 8 0;
#X connect 2 0 1 0;
#X connect 3 0 1 0;
#X connect 4 0 1 0;
#X connect 4 1 1 0;
#X connect 6 0 7 0;
#X connect 6 1 3 0;
#X connect 8 0 14 0;
#X connect 8 1 6 0;
#X connect 14 0 2 0;
#X connect 14 0 15 0;
#X connect 14 1 5 0;
#X connect 16 0 6 0;
#X restore 24 111 pd recordAudio;
#N canvas 86 83 311 454 limiter 0;
#X obj 76 342 *~, f 5;
#X obj 103 150 env~;
#X obj 103 172 dbtorms;
#X obj 76 45 inlet~;
#X obj 76 365 outlet~;
#X msg 103 226 1 \$1;
#X obj 103 253 /;
#X obj 103 278 min 1;
#X obj 103 199 + 0.5;
#X obj 103 306 lop~ 5;
#X connect 0 0 4 0;
#X connect 1 0 2 0;
#X connect 2 0 8 0;
#X connect 3 0 1 0;
#X connect 3 0 0 0;
#X connect 5 0 6 0;
#X connect 6 0 7 0;
#X connect 7 0 9 0;
#X connect 8 0 5 0;
#X connect 9 0 0 1;
#X restore 16 569 pd limiter;
#N canvas 224 23 892 672 delay-stuff 0;
#X obj 98 37 inlet~;
#X obj 265 34 inlet;
#X obj 615 196 * 0.6;
#X obj 615 326 line~;
#X msg 615 301 \$1 10;
#X obj 688 216 loadbang;
#X text 675 305 feedback;
#X obj 265 74 *;
#X msg 688 244 0.7;
#X obj 615 276 clip 0 0.6;
#X obj 615 221 + 0.2;
#X obj 698 437 line~;
#X msg 698 412 \$1 10;
#X obj 698 383 receive feedbackToggle;
#X obj 667 360 loadbang;
#X msg 667 383 1;
#X obj 143 240 sqrt;
#X obj 143 360 line~;
#X text 137 436 delay level;
#X obj 98 159 *~;
#X msg 113 101 \$1 100;
#X obj 113 125 line~;
#X obj 113 77 receive delayToggle;
#X msg 143 335 \$1 200;
#X obj 98 417 *~, f 8;
#X obj 438 370 lop~ 4000;
#X obj 365 470 outlet~;
#X obj 438 402 *~ 1;
#X obj 438 340 delread~ delay1 500;
#X obj 615 470 *~;
#X obj 438 621 delwrite~ delay1 1000;
#X obj 254 340 delread~ delay2 340;
#X obj 438 548 *~, f 30;
#X obj 254 401 *~ -0.6, f 8;
#X obj 385 237 r msTempo;
#X obj 341 289 * 0.75;
#X obj 579 621 delwrite~ delay2 750;
#X connect 0 0 19 0;
#X connect 1 0 7 0;
#X connect 1 0 7 1;
#X connect 2 0 10 0;
#X connect 3 0 29 0;
#X connect 4 0 3 0;
#X connect 5 0 8 0;
#X connect 7 0 2 0;
#X connect 7 0 16 0;
#X connect 8 0 9 0;
#X connect 9 0 4 0;
#X connect 10 0 9 0;
#X connect 11 0 29 1;
#X connect 12 0 11 0;
#X connect 13 0 12 0;
#X connect 14 0 15 0;
#X connect 15 0 12 0;
#X connect 16 0 23 0;
#X connect 17 0 24 1;
#X connect 19 0 24 0;
#X connect 20 0 21 0;
#X connect 21 0 19 1;
#X connect 22 0 20 0;
#X connect 23 0 17 0;
#X connect 24 0 30 0;
#X connect 25 0 27 0;
#X connect 27 0 26 0;
#X connect 27 0 32 0;
#X connect 28 0 25 0;
#X connect 29 0 32 1;
#X connect 31 0 33 0;
#X connect 32 0 30 0;
#X connect 32 0 36 0;
#X connect 33 0 30 0;
#X connect 33 0 26 0;
#X connect 34 0 28 0;
#X connect 34 0 35 0;
#X connect 35 0 31 0;
#X restore 67 367 pd delay-stuff;
#N canvas 0 23 259 303 userVolume 0;
#X obj 62 36 inlet~;
#X obj 62 252 outlet~;
#X obj 77 176 line~;
#X msg 77 153 \$1 10;
#X obj 77 74 receive userVolume;
#X obj 62 211 *~;
#X connect 0 0 5 0;
#X connect 2 0 5 1;
#X connect 3 0 2 0;
#X connect 4 0 3 0;
#X connect 5 0 1 0;
#X restore 16 542 pd userVolume;
#X text 371 293 ---;
#X connect 1 0 20 0;
#X connect 1 0 27 0;
#X connect 4 0 5 0;
#X connect 5 0 10 0;
#X connect 6 0 1 1;
#X connect 6 1 27 1;
#X connect 9 0 28 0;
#X connect 10 0 6 0;
#X connect 10 1 11 0;
#X connect 11 0 19 0;
#X connect 12 0 9 0;
#X connect 13 0 12 1;
#X connect 14 0 13 0;
#X connect 16 0 1 0;
#X connect 19 0 14 0;
#X connect 20 0 12 0;
#X connect 20 0 28 0;
#X connect 22 0 25 0;
#X connect 22 1 24 0;
#X connect 22 2 24 1;
#X connect 23 0 20 1;
#X connect 26 0 0 1;
#X connect 26 0 0 0;
#X connect 27 0 20 0;
#X connect 28 0 26 0;
