#N canvas 117 169 996 537 10;
#X obj 154 445 *~;
#X obj 154 482 outlet~;
#X obj 118 24 inlet;
#X obj 154 344 line~;
#X obj 439 357 line~;
#X obj 439 382 tabread~ window;
#X obj 462 23 inlet;
#X obj 301 118 * 1;
#X obj 603 23 inlet;
#X obj 265 27 inlet;
#X obj 203 230 +;
#X msg 154 307 \$1 \, \$2 \$3;
#X obj 154 279 pack 0 44100 1000;
#X obj 154 164 f 0;
#X obj 603 98 t b f;
#X obj 301 146 t b f;
#X text 114 6 trigger;
#X text 441 2 duration (ms);
#X text 584 4 pitch ratio;
#X msg 439 333 \$1 \, \$2 \$3;
#X obj 118 81 t b;
#X obj 603 49 expr exp(.057762265 * $f1);
#X text 618 71 nice trick to convert semitones to pitch ratio;
#X obj 154 378 tabread4~ /audiobuffer;
#X obj 246 221 * 44.1;
#X text 235 7 starting point (samples);
#X text 526 474 By Kristian Nymoen \, 2015;
#X obj 161 80 unpack 0 0 0;
#X obj 118 51 route bang list;
#X text 16 50 3 element list;
#X text 14 72 or bang trigger;
#X obj 403 258 t b;
#X obj 439 310 pack 0 512 1000;
#X obj 619 174 receive playthru;
#X obj 586 201 spigot;
#X obj 586 223 delay;
#X msg 586 246 \; grainend bang;
#X text 513 334 play through window (size = 512 samples) for [duration]
ms;
#X text 634 219 send bang when grain ends if playback mode is active
;
#X obj 463 229 del 1;
#X connect 0 0 1 0;
#X connect 2 0 28 0;
#X connect 3 0 23 0;
#X connect 4 0 5 0;
#X connect 5 0 0 1;
#X connect 6 0 7 0;
#X connect 6 0 12 2;
#X connect 6 0 32 2;
#X connect 6 0 35 1;
#X connect 7 0 15 0;
#X connect 8 0 21 0;
#X connect 9 0 13 1;
#X connect 9 0 10 0;
#X connect 10 0 12 1;
#X connect 11 0 3 0;
#X connect 12 0 11 0;
#X connect 13 0 12 0;
#X connect 14 0 7 0;
#X connect 14 1 7 1;
#X connect 15 0 10 0;
#X connect 15 1 24 0;
#X connect 19 0 4 0;
#X connect 20 0 13 0;
#X connect 20 0 32 0;
#X connect 21 0 14 0;
#X connect 23 0 0 0;
#X connect 24 0 10 1;
#X connect 27 0 10 0;
#X connect 27 0 13 0;
#X connect 27 0 31 0;
#X connect 27 1 12 2;
#X connect 27 1 7 0;
#X connect 27 1 32 2;
#X connect 27 1 35 1;
#X connect 27 2 21 0;
#X connect 28 0 20 0;
#X connect 28 1 27 0;
#X connect 31 0 32 0;
#X connect 31 0 39 0;
#X connect 32 0 19 0;
#X connect 33 0 34 1;
#X connect 34 0 35 0;
#X connect 35 0 36 0;
#X connect 39 0 34 0;
